<svg xmlns="http://www.w3.org/2000/svg" width="182.5" height="55.13" viewBox="0 0 182.5 55.13"><defs><style>.a{fill:#006f7b;}.b{fill:#b2c830;}.c{fill:#464747;}.d{fill:#60a4ab;}.e{fill:#13abd5;}.f{fill:#df0073;}.g{fill:#8b7faf;}.h{fill:#ef8423;}</style></defs><title>_uLIEGE_GIGA_CRC</title><path class="a" d="M86.53,6.07h1.73v4.42c0,1.22.35,1.67,1.15,1.67s1.08-.3,1.64-1V6.07h1.73v7.4H91.37l-.14-1.08h0a3,3,0,0,1-2.38,1.26c-1.59,0-2.28-1.07-2.28-2.94Z"/><path class="a" d="M94.79,6.07h1.43l.12,1h.06a3.41,3.41,0,0,1,2.42-1.18c1.58,0,2.28,1.07,2.28,2.94v4.64H99.36V9.06c0-1.22-.34-1.67-1.16-1.67a2.33,2.33,0,0,0-1.68.91v5.17H94.79Z"/><path class="a" d="M103.32,6.07h1.74v7.4h-1.74Z"/><path class="a" d="M106.35,6.07h1.76l1.18,3.85c.19.72.42,1.47.62,2.22H110c.21-.75.42-1.5.63-2.22l1.17-3.85h1.68l-2.52,7.4h-2Z"/><path class="a" d="M117.38,5.89c2,0,3.05,1.45,3.05,3.51a4.23,4.23,0,0,1-.07.82h-4.7a2.12,2.12,0,0,0,2.18,2.09,3.12,3.12,0,0,0,1.72-.54l.59,1.08a4.66,4.66,0,0,1-2.53.8A3.57,3.57,0,0,1,114,9.78,3.6,3.6,0,0,1,117.38,5.89Zm1.55,3.23c0-1.18-.5-1.89-1.51-1.89s-1.63.65-1.78,1.89Z"/><path class="a" d="M122.24,6.07h1.43l.12,1.32h.06a2.52,2.52,0,0,1,2.1-1.5,2,2,0,0,1,.84.15l-.3,1.51a2.59,2.59,0,0,0-.77-.12c-.59,0-1.3.41-1.75,1.52v4.52h-1.73Z"/><path class="a" d="M127.86,11.51a3.29,3.29,0,0,0,2,.83c.79,0,1.17-.38,1.17-.89s-.8-.89-1.58-1.19c-1-.36-2.08-.92-2.08-2.15s1-2.22,2.7-2.22a4,4,0,0,1,2.45.89l-.8,1.06a2.74,2.74,0,0,0-1.62-.64c-.74,0-1.09.35-1.09.82s.74.81,1.54,1.1c1,.37,2.12.86,2.12,2.24s-1,2.29-2.87,2.29a4.77,4.77,0,0,1-2.81-1Z"/><path class="a" d="M134.44,6.07h1.73v7.4h-1.73Z"/><path class="a" d="M138.84,7.45h-1.06V6.15l1.15-.08.21-2h1.44v2h1.89V7.45h-1.89V11c0,.87.34,1.3,1,1.3a2.12,2.12,0,0,0,.77-.17l.3,1.28a4.57,4.57,0,0,1-1.5.27c-1.72,0-2.35-1.08-2.35-2.68Z"/><path class="a" d="M147,5.89c2,0,3,1.45,3,3.51a4.23,4.23,0,0,1-.07.82h-4.7a2.12,2.12,0,0,0,2.18,2.09,3.15,3.15,0,0,0,1.72-.54l.59,1.08a4.66,4.66,0,0,1-2.53.8,3.57,3.57,0,0,1-3.65-3.87A3.6,3.6,0,0,1,147,5.89Zm1.55,3.23c0-1.18-.5-1.89-1.51-1.89s-1.63.65-1.78,1.89Z"/><path class="a" d="M103.13,4a1.07,1.07,0,1,1,1.07,1A1,1,0,0,1,103.13,4Z"/><path class="a" d="M134.24,4a1.07,1.07,0,1,1,1.07,1A1,1,0,0,1,134.24,4Z"/><polygon class="a" points="147.17 5.2 145.89 5.2 147.23 3 148.96 3 147.17 5.2"/><path class="a" d="M45.52,3h2.35v8.44H52v2H45.52Z"/><path class="a" d="M53.54,3h2.35V13.46H53.54Z"/><polygon class="a" points="57.74 3.03 64.26 3.03 64.26 5.01 60.09 5.01 60.09 7.11 63.64 7.11 63.64 9.07 60.09 9.07 60.09 11.47 64.42 11.47 64.42 13.46 57.74 13.46 57.74 3.03"/><polygon class="a" points="58.52 0 61.02 0 62.31 1.92 60.44 1.92 58.52 0"/><path class="a" d="M65.22,8.31A6.23,6.23,0,0,1,65.63,6a5.1,5.1,0,0,1,1.11-1.72A4.76,4.76,0,0,1,68.37,3.2a5.5,5.5,0,0,1,2-.37,4.08,4.08,0,0,1,1.91.42,5.08,5.08,0,0,1,1.32.94L72.3,5.65a3.57,3.57,0,0,0-.81-.58,2.64,2.64,0,0,0-1.1-.2,2.57,2.57,0,0,0-1.11.23,2.34,2.34,0,0,0-.87.66,2.91,2.91,0,0,0-.57,1.06,4.66,4.66,0,0,0-.2,1.41,3.82,3.82,0,0,0,.73,2.5,2.68,2.68,0,0,0,2.2.89,2.57,2.57,0,0,0,.62-.08,1.55,1.55,0,0,0,.5-.24V9.51H70V7.59h3.81v4.8a4.76,4.76,0,0,1-1.47.89,5.27,5.27,0,0,1-2,.37,5.88,5.88,0,0,1-2-.34,4.47,4.47,0,0,1-1.6-1,4.73,4.73,0,0,1-1.08-1.67A6.35,6.35,0,0,1,65.22,8.31Z"/><path class="a" d="M75.3,3h6.53V5H77.66v2.1h3.55v2H77.66v2.4H82v2H75.3Z"/><path class="b" d="M46.89,46.44a6.6,6.6,0,0,1,.38-2.3,5,5,0,0,1,1-1.73,4.32,4.32,0,0,1,1.54-1.07A4.79,4.79,0,0,1,51.73,41a3.65,3.65,0,0,1,1.73.4,5.15,5.15,0,0,1,1.26.93l-1,1.15a3.6,3.6,0,0,0-.85-.63,2.41,2.41,0,0,0-1.07-.23,2.78,2.78,0,0,0-1.2.26,2.91,2.91,0,0,0-.93.76A3.61,3.61,0,0,0,49,44.8a5.57,5.57,0,0,0-.21,1.59,4.49,4.49,0,0,0,.78,2.81,2.49,2.49,0,0,0,2.1,1A2.63,2.63,0,0,0,52.91,50a3.47,3.47,0,0,0,1-.77l1,1.14a4.46,4.46,0,0,1-1.45,1.13,4.18,4.18,0,0,1-1.82.39,5,5,0,0,1-1.87-.35,4.26,4.26,0,0,1-1.51-1,4.86,4.86,0,0,1-1-1.7A6.67,6.67,0,0,1,46.89,46.44Z"/><path class="b" d="M62.4,51.65l-2.26-4.11H58.53v4.11H56.67V41.16h3.55a6.69,6.69,0,0,1,1.52.16,3.46,3.46,0,0,1,1.22.52,2.54,2.54,0,0,1,.81,1,3.21,3.21,0,0,1,.3,1.47,3.09,3.09,0,0,1-.57,1.94A3.14,3.14,0,0,1,62,47.27l2.5,4.38Zm-3.87-5.58H60a2.62,2.62,0,0,0,1.65-.45,1.62,1.62,0,0,0,.57-1.35A1.35,1.35,0,0,0,61.67,43,3.11,3.11,0,0,0,60,42.65H58.53Z"/><path class="b" d="M65.73,46.44a6.6,6.6,0,0,1,.38-2.3,5.06,5.06,0,0,1,1-1.73,4.29,4.29,0,0,1,1.53-1.07,4.8,4.8,0,0,1,1.9-.37,3.61,3.61,0,0,1,1.72.4,4.8,4.8,0,0,1,1.26.93l-1,1.15a3.87,3.87,0,0,0-.86-.63,2.38,2.38,0,0,0-1.07-.23,2.6,2.6,0,0,0-2.12,1,3.43,3.43,0,0,0-.61,1.19,5.22,5.22,0,0,0-.22,1.59,4.49,4.49,0,0,0,.78,2.81,2.51,2.51,0,0,0,2.11,1A2.65,2.65,0,0,0,71.76,50a3.61,3.61,0,0,0,1-.77l1,1.14a4.6,4.6,0,0,1-1.46,1.13,4.17,4.17,0,0,1-1.81.39,5,5,0,0,1-1.88-.35,4.26,4.26,0,0,1-1.51-1,5.18,5.18,0,0,1-1-1.7A6.91,6.91,0,0,1,65.73,46.44Z"/><path class="b" d="M78.8,41.16h1.86V51.65H78.8Z"/><path class="b" d="M83.17,43.78h1.52l.13,1h.06A6.88,6.88,0,0,1,86,44a2.79,2.79,0,0,1,1.43-.37,2.12,2.12,0,0,1,1.85.81,4,4,0,0,1,.58,2.32v4.94H88V47a2.4,2.4,0,0,0-.29-1.38,1.06,1.06,0,0,0-.94-.4,1.61,1.61,0,0,0-.91.25,5.53,5.53,0,0,0-.89.73v5.5H83.17Z"/><path class="b" d="M94.46,43.78h1.87l1.25,4.08L97.91,49c.12.39.22.79.33,1.2h.07c.11-.41.23-.81.33-1.2s.22-.79.34-1.18l1.25-4.08H102l-2.68,7.87H97.2Z"/><path class="b" d="M104.3,42.4a1.16,1.16,0,0,1-.81-.29,1.06,1.06,0,0,1,0-1.52,1.29,1.29,0,0,1,1.63,0,1.06,1.06,0,0,1,0,1.52A1.17,1.17,0,0,1,104.3,42.4Zm-.93,1.38h1.85v7.87h-1.85Z"/><path class="b" d="M106.6,43.78h1.87l1.25,4.08.33,1.18q.18.59.33,1.2h.07c.11-.41.23-.81.33-1.2s.22-.79.34-1.18l1.25-4.08h1.78l-2.68,7.87h-2.13Z"/><path class="b" d="M115,47.72a4.62,4.62,0,0,1,.31-1.75,3.84,3.84,0,0,1,.82-1.3,3.65,3.65,0,0,1,2.61-1.09,3.86,3.86,0,0,1,1.42.28,3.59,3.59,0,0,1,1.19.81,4.2,4.2,0,0,1,.83,1.3,5.09,5.09,0,0,1,0,3.5,4.2,4.2,0,0,1-.83,1.3,3.42,3.42,0,0,1-1.19.8,3.85,3.85,0,0,1-1.42.27,3.76,3.76,0,0,1-1.41-.27,3.56,3.56,0,0,1-1.2-.8,3.84,3.84,0,0,1-.82-1.3A4.59,4.59,0,0,1,115,47.72Zm1.89,0a3.34,3.34,0,0,0,.49,1.9,1.66,1.66,0,0,0,2.72,0,3.26,3.26,0,0,0,.5-1.9,3.33,3.33,0,0,0-.5-1.92,1.66,1.66,0,0,0-2.72,0A3.41,3.41,0,0,0,116.89,47.72Z"/><path class="b" d="M127.77,41.16h1.86V51.65h-1.86Z"/><path class="b" d="M132.13,43.78h1.52l.13,1.07h.07a5.74,5.74,0,0,1,1.08-.9,2.47,2.47,0,0,1,1.32-.37,2.41,2.41,0,0,1,1.39.37,2.26,2.26,0,0,1,.79,1,7.16,7.16,0,0,1,1.17-1,2.5,2.5,0,0,1,1.37-.4,2.14,2.14,0,0,1,1.84.81,3.86,3.86,0,0,1,.59,2.32v4.94h-1.86V47a2.48,2.48,0,0,0-.29-1.38,1.05,1.05,0,0,0-.91-.4,2.49,2.49,0,0,0-1.65,1v5.5h-1.85V47a2.4,2.4,0,0,0-.29-1.38,1.07,1.07,0,0,0-.92-.4,2.49,2.49,0,0,0-1.66,1v5.5h-1.84Z"/><path class="b" d="M145.31,49.53a2.17,2.17,0,0,1,1.11-2,8.92,8.92,0,0,1,3.53-1,2.25,2.25,0,0,0-.08-.58,1.67,1.67,0,0,0-.25-.5,1.2,1.2,0,0,0-.43-.34,1.64,1.64,0,0,0-.67-.12,3,3,0,0,0-1.15.23,7,7,0,0,0-1.06.54l-.68-1.23a7.73,7.73,0,0,1,1.47-.72,4.83,4.83,0,0,1,1.76-.31,2.68,2.68,0,0,1,2.21.88,3.86,3.86,0,0,1,.72,2.52v4.67h-1.51l-.14-.87h0a6,6,0,0,1-1.13.76,2.9,2.9,0,0,1-1.31.3,2.33,2.33,0,0,1-1.69-.63A2.24,2.24,0,0,1,145.31,49.53Zm1.8-.14a.91.91,0,0,0,.31.77,1.3,1.3,0,0,0,.81.24,1.75,1.75,0,0,0,.88-.23,4.07,4.07,0,0,0,.84-.64V47.77a7.53,7.53,0,0,0-1.35.26,3.26,3.26,0,0,0-.87.36,1.31,1.31,0,0,0-.48.45A1.18,1.18,0,0,0,147.11,49.39Z"/><path class="b" d="M153.51,53.08a1.6,1.6,0,0,1,.29-.93,2.8,2.8,0,0,1,.83-.76v-.06a1.77,1.77,0,0,1-.51-.51,1.57,1.57,0,0,1-.2-.81,1.4,1.4,0,0,1,.27-.84,2.73,2.73,0,0,1,.6-.62v-.06a2.72,2.72,0,0,1-.71-.84,2.41,2.41,0,0,1-.32-1.24A2.79,2.79,0,0,1,154,45.2a2.74,2.74,0,0,1,.68-.89,2.88,2.88,0,0,1,1-.54,3.58,3.58,0,0,1,1.19-.19,3,3,0,0,1,.61.06,3.53,3.53,0,0,1,.54.14h2.82v1.36h-1.44a1.93,1.93,0,0,1,.32.57,2.06,2.06,0,0,1,.13.76,2.74,2.74,0,0,1-.23,1.15,2.44,2.44,0,0,1-.64.84,2.83,2.83,0,0,1-.94.51,3.77,3.77,0,0,1-1.17.18,3.17,3.17,0,0,1-.53,0,2.66,2.66,0,0,1-.55-.16,1.6,1.6,0,0,0-.28.32.78.78,0,0,0-.1.43.6.6,0,0,0,.28.53,1.84,1.84,0,0,0,1,.19h1.39a4.15,4.15,0,0,1,2.16.46,1.62,1.62,0,0,1,.73,1.49,2.16,2.16,0,0,1-.3,1.09,2.6,2.6,0,0,1-.84.88,4.46,4.46,0,0,1-1.32.58,6.28,6.28,0,0,1-1.74.22,6,6,0,0,1-1.31-.13,3.29,3.29,0,0,1-1-.38,2,2,0,0,1-.68-.64A1.6,1.6,0,0,1,153.51,53.08Zm1.54-.28a.92.92,0,0,0,.53.83,3.1,3.1,0,0,0,1.49.3,2.84,2.84,0,0,0,1.55-.38,1.06,1.06,0,0,0,.58-.89.63.63,0,0,0-.36-.63,2.77,2.77,0,0,0-1-.16h-1.08a4.09,4.09,0,0,1-1.07-.11A1.31,1.31,0,0,0,155.05,52.8ZM156.88,48a1.28,1.28,0,0,0,1-.41,1.62,1.62,0,0,0,.4-1.17,1.59,1.59,0,0,0-.39-1.15,1.32,1.32,0,0,0-1-.41,1.3,1.3,0,0,0-1,.4,1.56,1.56,0,0,0-.4,1.16,1.58,1.58,0,0,0,.4,1.17A1.28,1.28,0,0,0,156.88,48Z"/><path class="b" d="M163.31,42.4a1.17,1.17,0,0,1-.82-.29,1.06,1.06,0,0,1,0-1.52,1.29,1.29,0,0,1,1.63,0,1,1,0,0,1,0,1.52A1.16,1.16,0,0,1,163.31,42.4Zm-.93,1.38h1.84v7.87h-1.84Z"/><path class="b" d="M166.58,43.78h1.52l.13,1h.06a6.88,6.88,0,0,1,1.15-.88,2.8,2.8,0,0,1,1.44-.37,2.1,2.1,0,0,1,1.84.81,3.94,3.94,0,0,1,.58,2.32v4.94h-1.85V47a2.4,2.4,0,0,0-.29-1.38,1.06,1.06,0,0,0-.94-.4,1.64,1.64,0,0,0-.91.25,5.53,5.53,0,0,0-.89.73v5.5h-1.84Z"/><path class="b" d="M175,53.08a1.67,1.67,0,0,1,.29-.93,2.8,2.8,0,0,1,.83-.76v-.06a1.62,1.62,0,0,1-.5-.51,1.6,1.6,0,0,1,.06-1.65,2.73,2.73,0,0,1,.6-.62v-.06a2.87,2.87,0,0,1-.71-.84,2.4,2.4,0,0,1-.31-1.24,2.79,2.79,0,0,1,.25-1.21,2.74,2.74,0,0,1,.68-.89,3,3,0,0,1,1-.54,3.62,3.62,0,0,1,1.19-.19,3.18,3.18,0,0,1,.62.06,3.71,3.71,0,0,1,.53.14h2.83v1.36h-1.45a1.73,1.73,0,0,1,.32.57,2.06,2.06,0,0,1,.13.76,2.74,2.74,0,0,1-.23,1.15,2.44,2.44,0,0,1-.64.84,2.83,2.83,0,0,1-.94.51,3.72,3.72,0,0,1-1.17.18,3.27,3.27,0,0,1-.53,0,3.08,3.08,0,0,1-.55-.16,2,2,0,0,0-.28.32.78.78,0,0,0-.1.43.6.6,0,0,0,.28.53,1.87,1.87,0,0,0,1,.19h1.4a4.11,4.11,0,0,1,2.15.46,1.62,1.62,0,0,1,.73,1.49,2.25,2.25,0,0,1-.29,1.09,2.73,2.73,0,0,1-.85.88,4.46,4.46,0,0,1-1.32.58,6.28,6.28,0,0,1-1.74.22A6.06,6.06,0,0,1,177,55a3.29,3.29,0,0,1-1-.38,2,2,0,0,1-.68-.64A1.6,1.6,0,0,1,175,53.08Zm1.54-.28a.91.91,0,0,0,.54.83,3,3,0,0,0,1.48.3,2.84,2.84,0,0,0,1.55-.38,1.06,1.06,0,0,0,.58-.89.63.63,0,0,0-.36-.63,2.74,2.74,0,0,0-1-.16h-1.08a4.14,4.14,0,0,1-1.07-.11A1.31,1.31,0,0,0,176.57,52.8ZM178.4,48a1.28,1.28,0,0,0,1-.41,1.9,1.9,0,0,0,0-2.32,1.31,1.31,0,0,0-1-.41,1.32,1.32,0,0,0-1,.4,1.56,1.56,0,0,0-.4,1.16,1.58,1.58,0,0,0,.4,1.17A1.29,1.29,0,0,0,178.4,48Z"/><path class="c" d="M45.62,27.68a8.18,8.18,0,0,1,.54-3.06,6.88,6.88,0,0,1,1.46-2.27,6.23,6.23,0,0,1,2.15-1.41,7.23,7.23,0,0,1,2.63-.49,5.51,5.51,0,0,1,2.52.55,6.49,6.49,0,0,1,1.75,1.25L55,24.17a4.39,4.39,0,0,0-1.07-.76,3.32,3.32,0,0,0-1.45-.27,3.5,3.5,0,0,0-1.46.3,3.31,3.31,0,0,0-1.15.88,3.79,3.79,0,0,0-.75,1.39,6,6,0,0,0-.27,1.86,5.07,5.07,0,0,0,1,3.3,3.52,3.52,0,0,0,2.91,1.18,3.24,3.24,0,0,0,.82-.11,1.58,1.58,0,0,0,.65-.32V29.26H51.87V26.73h5v6.33A6.15,6.15,0,0,1,55,34.24a7.15,7.15,0,0,1-2.66.49,7.24,7.24,0,0,1-2.61-.46,5.93,5.93,0,0,1-2.12-1.34,6.17,6.17,0,0,1-1.43-2.2A8.44,8.44,0,0,1,45.62,27.68Z"/><path class="c" d="M59.54,20.71h3.1V34.47h-3.1Z"/><path class="c" d="M65,27.68a8.18,8.18,0,0,1,.54-3.06A6.7,6.7,0,0,1,67,22.35a6.18,6.18,0,0,1,2.16-1.41,7.17,7.17,0,0,1,2.62-.49,5.52,5.52,0,0,1,2.53.55,6.59,6.59,0,0,1,1.74,1.25l-1.71,1.92a4.2,4.2,0,0,0-1.07-.76,3.3,3.3,0,0,0-1.44-.27,3.51,3.51,0,0,0-1.47.3,3.4,3.4,0,0,0-1.15.88,3.79,3.79,0,0,0-.75,1.39,6,6,0,0,0-.26,1.86,5.07,5.07,0,0,0,1,3.3,3.5,3.5,0,0,0,2.9,1.18,3.24,3.24,0,0,0,.82-.11,1.7,1.7,0,0,0,.66-.32V29.26H71.28V26.73h5v6.33a6.15,6.15,0,0,1-1.94,1.18,7.12,7.12,0,0,1-2.66.49,7.24,7.24,0,0,1-2.61-.46A5.93,5.93,0,0,1,67,32.93a6.17,6.17,0,0,1-1.43-2.2A8.44,8.44,0,0,1,65,27.68Z"/><path class="c" d="M85.4,31.2H81.2l-.85,3.27H77.19l4.3-13.76h3.74l4.31,13.76H86.25Zm-.63-2.43-.32-1.26c-.2-.69-.39-1.43-.57-2.2s-.37-1.52-.55-2.24h-.08l-.52,2.25c-.18.77-.36,1.5-.56,2.19l-.34,1.26Z"/><polygon class="a" points="0 23.97 9.1 18.71 0 13.46 0 23.97"/><polygon class="a" points="0 34.48 9.1 39.74 9.1 29.23 0 34.48"/><polygon class="d" points="0 13.46 9.1 18.71 9.1 8.2 0 13.46"/><polygon class="a" points="18.2 13.46 9.1 8.2 9.1 18.71 18.2 13.46"/><polygon class="a" points="9.1 29.23 18.2 34.48 18.2 23.97 9.1 29.23"/><polygon class="e" points="18.2 34.48 9.1 29.23 9.1 39.74 18.2 34.48"/><polygon class="b" points="18.2 23.97 9.1 18.71 9.1 29.23 18.2 23.97"/><polygon class="b" points="0 34.48 9.1 29.23 0 23.97 0 34.48"/><polygon class="c" points="0 2.95 0 13.46 9.1 8.2 0 2.95 0 2.95"/><polygon class="f" points="18.2 44.99 27.31 39.74 18.2 34.48 18.2 44.99"/><polygon class="d" points="27.31 18.71 36.41 13.46 27.31 8.2 27.31 18.71"/><polygon class="g" points="27.31 39.74 36.41 34.48 27.31 29.23 27.31 39.74"/><polygon class="c" points="0 23.97 9.1 29.23 9.1 18.71 0 23.97"/><polygon class="c" points="9.1 18.71 18.2 23.97 18.2 13.46 9.1 18.71"/><polygon class="c" points="9.1 39.74 18.2 44.99 18.2 34.48 9.1 39.74"/><polygon class="h" points="18.2 34.48 27.31 39.74 27.31 29.23 18.2 34.48"/><polygon class="a" points="36.41 2.95 27.31 8.2 36.41 13.46 36.41 2.95 36.41 2.95"/><polygon class="c" points="27.31 29.23 36.41 34.48 36.41 23.97 27.31 29.23"/></svg>