<svg width="176" height="89" xmlns="http://www.w3.org/2000/svg"><g fill="none" fill-rule="evenodd"><path fill="#DC2D27" d="M87 89h89V0H87z"/><path fill="#000" d="M0 89h89V0H0z"/><path d="M106.001 31.078l1.232.708c.535.302 1.015.624 1.015 1.247 0 .783-.57 1.234-1.563 1.234l-.103-.003c-.618-.01-1.06-.045-1.55-.448l-.094-.078v.879l.037.015c.507.192.867.195 1.365.196l.168.003.128.003c.55 0 1.563-.091 2.142-.693.303-.313.447-.724.429-1.222-.04-1.064-.606-1.382-1.323-1.784-.081-.045-.164-.09-.248-.14l-1.078-.625c-.444-.255-.728-.5-.77-.945a.875.875 0 0 1 .245-.685c.255-.278.675-.452 1.098-.452.03 0 .061 0 .093.003.513.018.883.098 1.25.444l.098.095v-.873l-.036-.015c-.427-.174-.733-.183-1.155-.197-.102-.001-.213-.007-.318-.009-.685 0-1.306.231-1.705.635-.297.3-.453.68-.449 1.098.01.68.336 1.162 1.092 1.61M109.55 28.144c.07.09.094.143.12.236l2.45 6.598 1.75-4.825 1.734 4.64.054.15 2.314-6.446a.937.937 0 0 1 .089-.188l.04-.07c.08-.123.135-.207.231-.323l.08-.094h-1.227l.058.09a.375.375 0 0 1 .07.217c.008.102-.023.174-.076.291l-1.49 4.428-1.613-4.476a.531.531 0 0 1-.026-.3.539.539 0 0 1 .065-.156l.046-.085h-1.471l.102.1c.064.065.12.119.184.203l.051.061c.051.06.09.105.122.188l.327.83-1.36 3.626-1.607-4.57c-.021-.057-.017-.1.001-.173a.369.369 0 0 1 .074-.175l.058-.09h-1.57l.19.11a.705.705 0 0 1 .23.203M119.238 28.224c.042.135.05.209.05.336v5.517c0 .135 0 .215-.05.337a.778.778 0 0 1-.103.213l-.06.09h1.264l-.046-.087c-.015-.03-.033-.053-.048-.078-.033-.052-.06-.093-.07-.154-.028-.222-.028-.525-.028-.876v-4.98c0-.098 0-.158.06-.36l.006-.012c.035-.093.06-.162.102-.246l.04-.084h-1.313l.058.088c.066.101.102.179.138.296M121.593 28.128a.474.474 0 0 1 .066.261v5.663c0 .132 0 .219-.036.352a.532.532 0 0 1-.108.222l-.064.092h1.05l-.046-.149a2.206 2.206 0 0 1-.058-.213c-.063-.295-.063-.295-.063-.487V28.98l5.382 5.94.102.111-.01-6.489c0-.132 0-.211.025-.35.021-.116.036-.188.07-.292l.026-.076h-.92l.023.073c.029.102.044.16.063.255.048.269.046.456.046.696l-.001 4.304-4.665-5.32h-1.236l.186.109a.355.355 0 0 1 .168.187M129.004 28.163a.859.859 0 0 1 .086.378v5.582a.903.903 0 0 1-.057.328l-.01.017a.812.812 0 0 1-.095.166l-.065.092h1.919c1.407 0 2.287-.765 2.298-1.992 0-.891-.408-1.482-1.21-1.754l-.157-.055.15-.092c.561-.322.78-.703.762-1.321-.05-.942-.78-1.68-1.665-1.68h-2.157l.062.091c.061.089.097.146.14.24m1.483 3.113c1.14.033 1.728.522 1.75 1.45.029.945-.825 1.422-1.681 1.475a1.674 1.674 0 0 1-.599-.066v-2.817c.195-.042.318-.042.53-.042m-.033-.55h-.533v-2.327h.606c.768 0 1.248.418 1.283 1.117.013.344-.084.635-.282.842-.233.24-.605.367-1.074.367M134.197 28.25c.012.081.01.137.01.209-.003.03-.003.058-.003.091v3.893c0 1.357 1.17 2.379 2.721 2.379h.053c1.465-.026 2.568-1.034 2.568-2.34V28.42a1.42 1.42 0 0 1 .08-.517l.022-.074h-1.109l.033.078c.04.104.057.17.084.28l.003.01c.018.12.018.2.018.336v3.88c0 .962-.715 1.677-1.704 1.706h-.058c-1.01 0-1.86-.804-1.86-1.757v-3.945a.783.783 0 0 1 .02-.24.794.794 0 0 1 .074-.267l.035-.08h-1.098l.03.076c.048.13.064.208.08.343M140.663 27.979a.732.732 0 0 1 .081.192c.045.247.053.391.053.645v4.863c0 .241 0 .547-.026.684-.004.072-.031.123-.067.192l-.036.067-.042.086h1.177l-.06-.155c-.031-.084-.054-.144-.069-.244-.027-.123-.027-.198-.027-.31v-3.055c.01.005.017.012.027.023.047.034.072.07.104.118.02.027.039.056.064.087l2.726 3.54.016.021h1.277l-.143-.103c-.133-.098-.208-.16-.34-.269-.195-.17-.347-.37-.542-.62l-1.648-2.095a3.776 3.776 0 0 0-.479-.522l-.012-.012a.718.718 0 0 0 .08.003c.897 0 1.64-.753 1.657-1.672a1.49 1.49 0 0 0-.415-1.106c-.32-.327-.792-.514-1.3-.514h-2.137l.042.084.04.072zm.995.474c.228-.095.385-.107.658-.107 1.046.044 1.223.563 1.259 1.118.054.71-.467 1.179-1.386 1.254-.18.01-.4.003-.531-.012v-2.253zM146.283 28.125a.526.526 0 0 1 .068.266v5.66c0 .131 0 .218-.035.35a.581.581 0 0 1-.113.224l-.064.091h1.05l-.021-.075c-.01-.036-.021-.066-.03-.096-.018-.064-.036-.117-.048-.189-.065-.295-.065-.295-.065-.487V28.98l5.378 5.94.102.11-.006-6.49c0-.131 0-.21.027-.352.016-.115.036-.187.066-.29l.025-.076h-.92l.023.075c.032.1.046.156.066.254.048.262.044.448.042.68v4.321l-4.66-5.32h-1.242l.186.107c.09.053.133.1.171.186M153.756 28.108a.722.722 0 0 1 .05.27v5.682c0 .033 0 .065.002.093.003.08.008.15-.02.236a.597.597 0 0 1-.106.235l-.066.092h4.068l.296-.963-.137.093a.918.918 0 0 1-.29.14 2.038 2.038 0 0 1-.739.104h-2.109v-2.913h1.757c.108 0 .184 0 .286.014.158.04.242.064.37.124l.08.04v-.794h-2.521v-2.117h1.785l.11-.001c.09-.006.166-.015.29.028.095.029.16.072.239.147l.097.096v-.876h-3.658l.103.1c.06.058.081.098.113.17M100.415 46.49c1.464-.027 2.568-1.034 2.568-2.34v-3.968l-.001-.094c0-.077-.003-.137.012-.224a1.71 1.71 0 0 1 .069-.292l.024-.075h-1.107l.031.08c.042.103.06.173.087.286.018.123.018.204.018.339v3.88c0 .962-.717 1.677-1.704 1.706h-.06c-1.006 0-1.858-.806-1.858-1.758v-3.875l-.002-.069c0-.084-.001-.148.021-.243a.87.87 0 0 1 .075-.264l.036-.082h-1.096l.028.078a1.425 1.425 0 0 1 .087.549l-.001.094v3.893c0 1.357 1.17 2.379 2.724 2.379h.05zM105.043 46.204a1.21 1.21 0 0 1-.048-.18c-.063-.295-.063-.295-.063-.487V40.65l5.382 5.94.1.114-.008-6.495c0-.133 0-.213.024-.354a2.34 2.34 0 0 1 .072-.294l.024-.073h-.92l.021.073c.029.096.047.162.066.258.048.263.047.447.044.683V44.818l-4.662-5.317h-1.233l.178.108a.36.36 0 0 1 .171.187.485.485 0 0 1 .066.26v5.664c0 .132 0 .22-.037.348a.555.555 0 0 1-.107.226l-.064.09h1.048l-.02-.073-.034-.107M112.743 39.851l.015-.037c.03-.083.053-.144.092-.222l.04-.084h-1.314l.057.088c.066.1.1.176.14.299.042.124.05.2.05.334v5.514c0 .14 0 .213-.05.34a.724.724 0 0 1-.104.214l-.057.087h1.27l-.053-.086c-.012-.024-.027-.045-.04-.067a.411.411 0 0 1-.079-.168c-.027-.222-.027-.524-.027-.873v-4.982c0-.094 0-.153.06-.357M114.872 39.49h-1.403l.179.108c.093.053.14.1.202.203a.702.702 0 0 1 .081.16l3.243 6.635 3.018-6.416a2.12 2.12 0 0 1 .144-.262c.072-.137.128-.215.21-.324l.072-.093h-1.138l.024.073a.694.694 0 0 1 .034.22.517.517 0 0 1-.066.208 4.45 4.45 0 0 0-.04.084l-2.234 4.795-2.376-5.004a.394.394 0 0 1-.04-.168c0-.046.006-.08.036-.129l.054-.09zM121.474 46.288l-.07.094h4.072l.297-.958-.137.091a.954.954 0 0 1-.292.138 2.074 2.074 0 0 1-.737.107h-2.112v-2.915h1.76c.106 0 .184 0 .286.014.143.034.23.063.37.126l.08.036v-.792h-2.523v-2.115h1.787c.039 0 .075-.005.112-.005a.736.736 0 0 1 .287.027.54.54 0 0 1 .24.149l.097.099v-.88h-3.65l.094.098c.058.063.082.1.115.171.035.102.05.167.05.272v5.68c0 .035.001.066.003.095.001.084.004.151-.021.238a.534.534 0 0 1-.108.23M131.61 46.298a10.945 10.945 0 0 1-.343-.27c-.192-.172-.348-.375-.543-.63l-1.643-2.085a4.108 4.108 0 0 0-.48-.523l-.013-.012c.028.003.057.003.084.003.897 0 1.636-.75 1.654-1.671a1.482 1.482 0 0 0-.414-1.103c-.318-.33-.795-.517-1.305-.517h-2.136l.077.142c.037.068.069.123.088.204.042.25.054.395.054.647v4.861c0 .245 0 .55-.027.687a.46.46 0 0 1-.075.203l-.072.14h1.176l-.027-.076c-.012-.033-.022-.063-.033-.09a.995.995 0 0 1-.066-.23 1.065 1.065 0 0 1-.025-.295v-3.072l.025.023c.047.036.072.073.108.121.017.027.038.054.062.086l2.722 3.538.017.023h1.273l-.138-.104zm-4.059-6.178c.227-.093.384-.105.656-.105 1.05.043 1.227.588 1.261 1.114.053.714-.468 1.182-1.387 1.257-.195.005-.404 0-.53-.012V40.12z" fill="#FFF"/><path d="M131.678 41.137c.01.682.335 1.162 1.092 1.61l1.232.709c.532.3 1.014.62 1.014 1.246 0 .771-.584 1.233-1.562 1.233-.034 0-.07-.003-.106-.003-.614-.009-1.053-.045-1.55-.448l-.093-.078v.88l.036.014c.5.187.854.192 1.344.196l.19.005.128.001c.552 0 1.562-.091 2.144-.693.303-.313.447-.724.43-1.22-.043-1.066-.612-1.385-1.326-1.787l-.246-.14-1.081-.624c-.443-.255-.725-.502-.768-.945a.88.88 0 0 1 .244-.685c.257-.278.678-.45 1.098-.45l.093.001c.515.02.885.1 1.253.444l.099.095v-.873l-.036-.014c-.428-.175-.75-.184-1.158-.196-.1-.006-.207-.01-.318-.01-.684 0-1.305.23-1.704.634-.299.298-.452.68-.449 1.098M138.025 39.851l.028-.075c.024-.064.047-.12.08-.184l.04-.084h-1.314l.057.088c.074.113.107.19.14.297.043.134.05.21.05.336v5.514c0 .14 0 .213-.05.34a.775.775 0 0 1-.102.214l-.06.087h1.264l-.048-.086a.44.44 0 0 0-.048-.076.424.424 0 0 1-.07-.16c-.026-.221-.026-.523-.026-.872v-4.982c0-.094 0-.153.059-.357M139.461 40.133h1.649v5.603c0 .044.003.085.003.119a.862.862 0 0 1-.01.234 1.318 1.318 0 0 1-.088.212l-.042.084h1.146l.096-.005-.048-.087c-.05-.087-.085-.141-.091-.224-.036-.2-.036-.22-.035-.289v-5.676h1.42c.14 0 .235.014.39.062.112.027.187.052.296.106l.092.042-.08-.815h-5.188l-.182.877.114-.071a.908.908 0 0 1 .34-.14.584.584 0 0 1 .218-.032M149.719 40.133c.069-.116.115-.191.192-.296.076-.1.126-.159.222-.245l.112-.1h-1.144l.01.066a.45.45 0 0 1 .002.148.562.562 0 0 1-.093.191l-1.493 2.361-1.366-2.216-.027-.041c-.048-.077-.084-.134-.111-.224a.55.55 0 0 1-.017-.212l.008-.066h-1.319l.13.105c.068.053.107.098.152.149l.033.036c.074.1.11.151.174.252l1.832 2.882v3.02c0 .019 0 .038.003.055 0 .041.001.072-.012.12a.7.7 0 0 1-.059.194l-.033.08h1.046l-.026-.075a1.396 1.396 0 0 1-.05-.197.874.874 0 0 1-.03-.211v-2.986l1.864-2.79zM157.129 39.352a3.514 3.514 0 0 0-3.503 3.517c0 1.911 1.512 3.458 3.441 3.525h.084c.95 0 1.872-.382 2.525-1.05.123-.124.178-.288.277-.427.04-.056.077-.116.114-.176a3.25 3.25 0 0 0 .443-1.075c.015-.062.024-.123.034-.186.033-.212.114-.41.11-.627a3.527 3.527 0 0 0-3.428-3.5l-.097-.001zm.039.672c1.485.025 2.619 1.24 2.637 2.829 0 .727-.28 1.456-.765 1.995-.504.56-1.175.865-1.892.865h-.06c-1.476-.033-2.605-1.299-2.575-2.883.027-1.359.95-2.806 2.616-2.806h.039zM162.57 42.22v-2.105H164.457l.082-.003c.084 0 .155.005.233.024.088.029.14.07.219.128l.112.088V39.5h-3.595l.069.093c.042.061.08.112.102.184a.708.708 0 0 1 .05.26v5.683l.002.11c.003.078.008.148-.009.226a1.093 1.093 0 0 1-.106.25l-.048.086h1.16l-.016-.072a.36.36 0 0 0-.031-.091.295.295 0 0 1-.029-.102 5.82 5.82 0 0 1-.055-.87v-2.421h1.756c.051 0 .095 0 .138-.003.077 0 .146-.002.25.003.09 0 .15.018.232.039l.135.033v-.687h-2.54zM99.572 51.166l-.182.877.114-.072a.863.863 0 0 1 .34-.138.627.627 0 0 1 .218-.034h1.649v5.605c0 .045.001.084.004.122.003.085.008.15-.01.23l-.006.02a.891.891 0 0 1-.08.188l-.052.085h1.155l.1-.001-.05-.087c-.053-.089-.085-.141-.095-.22-.035-.208-.035-.224-.033-.296v-5.673h1.42c.147 0 .24.013.386.061.123.03.198.056.298.107l.093.046-.079-.82h-5.19zM109.747 57.322a2.101 2.101 0 0 1-.738.106h-2.11V54.51h1.754a1.418 1.418 0 0 1 .658.142l.083.04v-.794h-2.524v-2.116h1.783c.04 0 .08-.003.116-.003.085-.005.157-.017.286.03a.502.502 0 0 1 .239.148l.1.102v-.885h-3.65l.092.098a.505.505 0 0 1 .116.174.707.707 0 0 1 .05.268v5.68c0 .032.002.062.004.092.001.084.004.152-.021.24a.606.606 0 0 1-.107.233l-.064.093h4.062l.298-.957-.135.088a1.01 1.01 0 0 1-.292.14M114.263 57.507h-.096c-.878 0-1.667-.307-2.217-.87-.516-.523-.78-1.214-.767-1.995.017-1.67 1.292-2.928 2.967-2.928h.066c.621.012 1.013.12 1.551.425l.087.047v-.799l-.034-.015c-.575-.242-.966-.288-1.622-.297h-.042c-1.12 0-2.133.396-2.85 1.116-.118.118-.17.277-.271.41-.032.043-.059.091-.09.136a3.294 3.294 0 0 0-.479 1.104 2.24 2.24 0 0 0-.031.17c-.04.211-.123.41-.122.631.008 2.011 1.623 3.531 3.756 3.531.07 0 .137-.003.206-.006l.102-.002c.586-.017.973-.028 1.546-.235l.027-.009.443-1.104-.16.11c-.54.38-1.186.57-1.97.58M122.481 57.699a1.156 1.156 0 0 1-.034-.296v-5.3c0-.046 0-.09-.002-.13-.001-.156-.006-.282.036-.444a1.35 1.35 0 0 1 .098-.271l.036-.083h-1.283l.089.096a.628.628 0 0 1 .159.291c.033.093.03.168.028.261a2.06 2.06 0 0 0-.003.1v1.946h-3.568v-1.92c0-.18 0-.301.051-.466l.018-.045c.027-.066.045-.114.087-.19l.046-.085h-1.272l.066.092c.07.093.102.151.147.256.035.119.035.201.035.34v5.656a.711.711 0 0 1-.03.279 1.311 1.311 0 0 1-.111.181l-.07.093h1.268l-.096-.14a.589.589 0 0 1-.087-.15 1.372 1.372 0 0 1-.043-.454l.001-.15v-2.679h3.558v2.969c0 .036.002.067.003.096.002.048.003.087-.001.13a.551.551 0 0 1-.125.264l-.076.095h1.225l-.045-.087c-.055-.1-.079-.168-.105-.255M129.284 51.228c.027.102.044.163.063.262.048.26.048.447.045.681l-.001.17v4.146l-4.66-5.322h-1.234l.177.11a.364.364 0 0 1 .171.184.523.523 0 0 1 .066.264v5.661c0 .132 0 .22-.034.354a.524.524 0 0 1-.11.22l-.061.092h1.045l-.02-.075c-.011-.04-.023-.074-.034-.105-.02-.063-.036-.111-.048-.18-.061-.294-.061-.294-.061-.489v-4.886l5.377 5.94.1.114-.005-6.49c0-.14 0-.216.024-.355.02-.116.039-.184.072-.293l.022-.075h-.912l.018.072zM137.974 55.335c.012-.064.024-.127.033-.195.035-.21.116-.403.111-.62-.036-1.924-1.512-3.425-3.432-3.499l-.1-.001c-1.928 0-3.495 1.576-3.495 3.516 0 1.912 1.509 3.459 3.438 3.523h.088c.948 0 1.866-.379 2.52-1.045.123-.125.182-.293.282-.434.038-.052.072-.11.108-.168.212-.334.36-.688.447-1.077zm-3.342-3.645c1.485.024 2.618 1.24 2.633 2.83 0 .728-.278 1.454-.764 1.994-.504.561-1.177.867-1.89.867h-.058c-1.476-.034-2.609-1.3-2.579-2.883.027-1.359.956-2.808 2.628-2.808h.03zM143.164 57.317c-.02.006-.042.01-.076.021a.936.936 0 0 1-.383.06l-2.551.01-.01-5.345c0-.051 0-.096-.002-.14a1.44 1.44 0 0 1 .034-.421.927.927 0 0 1 .095-.242l.046-.084h-1.261l.066.09c.063.09.102.165.138.28.033.136.042.202.042.334v5.584c0 .123 0 .201-.042.312-.024.065-.059.113-.102.174l-.066.092h4.083l.304-.82-.094-.06c-.16.143-.173.145-.22.155M150.37 55.335a3.77 3.77 0 0 0 .033-.195c.034-.21.115-.403.11-.62-.035-1.924-1.513-3.425-3.433-3.499l-.1-.001c-1.928 0-3.497 1.576-3.497 3.516 0 1.88 1.544 3.462 3.44 3.523h.087c.95 0 1.87-.38 2.523-1.047.123-.126.178-.288.277-.427.044-.057.08-.119.117-.179.209-.333.357-.684.443-1.07zm-3.345-3.645c1.482.024 2.619 1.24 2.638 2.83a3.01 3.01 0 0 1-.766 1.994c-.504.561-1.178.867-1.893.867h-.059c-1.471-.034-2.6-1.3-2.572-2.883.024-1.359.95-2.808 2.623-2.808h.029zM156.567 54.676c.097.108.154.173.195.303.073.237.073.43.072.672v1.376c-.534.3-.953.373-1.482.4-.054.003-.105.003-.158.003-1.642 0-2.87-1.18-2.919-2.806-.018-.795.263-1.556.771-2.085.495-.515 1.182-.792 1.986-.804.564 0 1.227.054 1.865.435l.085.052v-.835l-.036-.014c-.65-.255-1.108-.279-1.78-.29h-.04c-.233 0-.42.076-.635.107-.059.006-.113.018-.171.029-.443.08-.839.216-1.19.417a1.315 1.315 0 0 0-.076.048 3.176 3.176 0 0 0-.899.814c-.03.044-.058.089-.085.132-.22.33-.378.704-.474 1.124-.017.069-.03.144-.044.216-.039.226-.123.423-.127.669-.003.219.08.421.118.633.01.048.017.094.026.14.093.415.264.794.511 1.148.02.027.035.053.054.077.093.129.146.283.261.399.707.715 1.685 1.11 2.759 1.11.058 0 .118-.002.178-.005.99-.039 1.853-.391 2.288-.682l.025-.017-.009-2.29v-.056a.474.474 0 0 1 .027-.211.517.517 0 0 1 .114-.21l.075-.095h-1.37l.085.096zM162.332 51.227c.01.054.01.096.001.147a.568.568 0 0 1-.093.191l-1.494 2.361-1.404-2.273a1.007 1.007 0 0 1-.1-.201c-.015-.083-.024-.14-.015-.22l.009-.064h-1.323l.132.105c.075.057.115.105.168.165l.02.024c.07.094.104.147.173.247l1.83 2.879v3.023c0 .022 0 .04.003.056 0 .044.003.071-.012.119-.007.066-.025.111-.058.195l-.033.08h1.045l-.025-.075a2.507 2.507 0 0 1-.04-.143l-.013-.05a1.102 1.102 0 0 1-.025-.215v-2.99l1.861-2.787c.075-.123.117-.192.192-.299.075-.099.128-.159.222-.242l.11-.101h-1.142l.01.068zM14.795 28.503c-2.165-.028-3.659-.18-5.337-1.555v2.41c1.861.702 3.11.64 5.094.67 4.116.092 9.057-1.189 8.875-6.22-.151-3.873-2.439-4.73-5.185-6.315l-3.629-2.104c-1.434-.824-2.53-1.706-2.683-3.324-.215-2.5 2.53-4.18 5.031-4.025 1.768.06 3.05.335 4.332 1.556v-2.35c-1.649-.668-2.777-.608-4.575-.668-3.842-.125-7.383 2.008-7.353 5.608.031 2.44 1.344 3.936 3.57 5.246l4.149 2.38c1.888 1.067 3.505 2.193 3.505 4.36 0 2.839-2.194 4.456-5.794 4.331M24.522 8.769c.23.288.318.49.405.81l7.628 20.544 5.578-15.374 5.693 15.258 7.197-20.055c.114-.348.26-.549.432-.867.26-.406.432-.663.751-1.04h-3.181c.175.26.23.463.262.782.029.374-.087.633-.262 1.008L44.114 24.43 38.798 9.664c-.114-.376-.176-.636-.086-1.04.056-.233.116-.347.23-.55h-3.929c.231.231.402.404.605.666.232.288.435.46.579.839l1.07 2.715L32.73 24.37 27.44 9.348c-.086-.233-.057-.407 0-.64.03-.257.118-.403.264-.634H23.74c.348.203.52.377.781.695M52.159 14.459c.148.225.234.4.313.672.105.306.122.484.122.772v12.36c0 .297 0 .495-.117.767v.004l-.005.003a1.643 1.643 0 0 1-.232.488l-.077.115h2.649l-.069-.11-.093-.148c-.087-.127-.156-.23-.183-.397-.06-.498-.06-1.178-.06-1.962V15.861c0-.223 0-.354.14-.835.078-.216.14-.375.238-.573l.054-.107h-2.755l.075.113zM78.21 8.048h-2.427c.084.317.144.52.201.836.203 1.04.144 1.707.144 2.746v13.697L61.014 8.075h-3.177c.29.176.464.345.608.665.172.32.23.577.23.925v18.029c0 .435 0 .723-.116 1.158-.056.32-.171.49-.374.778h2.744c-.116-.375-.201-.576-.26-.924-.2-.952-.2-.952-.2-1.587V11.08l17.453 19.274-.03-20.2c0-.432 0-.689.089-1.152.057-.377.114-.61.23-.953M31.748 48.937c0-2.83-1.332-4.596-3.73-5.406l-.867-.317.81-.49c1.561-.894 2.4-1.995 2.341-4.047-.144-2.802-2.311-5.172-5.116-5.172h-6.53c.204.292.32.49.462.81.206.462.29.78.29 1.27v17.77c0 .436-.059.724-.204 1.127-.116.234-.173.378-.344.61h5.751c4.39 0 7.107-2.34 7.137-6.155zM21.692 34.949h2.11c2.684 0 4.159 1.56 4.274 3.728.087 2.34-1.357 4.047-4.507 4.047h-1.877v-7.775zm2.223 18.842c-.81.058-1.327-.029-2.107-.26v-9.249c.72-.172 1.153-.172 1.878-.172 2.857.085 5.662 1.098 5.75 4.798.086 3.119-2.689 4.71-5.52 4.883zM51.904 35.5c0-.406-.032-.634.028-1.039.059-.376.116-.609.231-.954h-3.009c.147.345.207.578.294.954.059.405.059.662.059 1.094v12.37c0 3.065-2.313 5.52-5.61 5.607-3.323.114-6.297-2.455-6.297-5.782V35.41c0-.373-.032-.634.055-1.01.06-.375.12-.58.261-.893H34.97c.144.4.203.665.26 1.124.057.378.027.607.027.982v12.4c0 4.391 3.873 7.453 8.64 7.397 4.453-.088 8.007-3.123 8.007-7.282V35.5zM71.254 54.254c-.666-.579-1.185-1.273-1.85-2.137l-5.143-6.534a13.956 13.956 0 0 0-1.504-1.646c-.176-.142-.261-.262-.432-.406 3.18.492 5.808-2.08 5.865-5.085.087-3.092-2.456-4.968-5.29-4.968h-6.5c.175.316.32.517.403.894.147.811.176 1.27.176 2.08v15.49c0 .81 0 1.76-.087 2.197-.029.345-.173.547-.347.894h3.177c-.144-.405-.26-.636-.316-1.04-.117-.462-.087-.724-.087-1.182v-9.915c.144.087.26.144.375.26.26.202.346.403.579.694l8.667 11.268h3.412a15.033 15.033 0 0 1-1.098-.864M59.347 42.637v-7.454c.84-.378 1.39-.406 2.283-.406 3.498.145 4.076 1.995 4.19 3.726.174 2.398-1.619 3.961-4.596 4.192-.689.027-1.47 0-1.877-.058M44.388 59.745c.202 1.04.144 1.704.144 2.747v13.696L29.418 58.935h-3.179c.291.176.462.347.608.663.174.323.232.58.232.926v18.031c0 .437 0 .723-.117 1.157-.057.318-.174.49-.375.778h2.745c-.115-.372-.204-.576-.26-.924-.202-.952-.202-.952-.202-1.585V61.94l17.453 19.275-.027-20.198c0-.433 0-.696.085-1.156.059-.375.116-.608.233-.953h-2.43c.087.318.145.52.204.837M61.088 78.874h-6.905V69.22h5.778c.345 0 .608 0 .954.059.49.115.779.202 1.212.405v-2.052h-8.03v-7.107h5.864c.492 0 .839-.086 1.33.084.347.118.58.262.836.522v-2.168H51.116c.207.203.292.348.41.605.115.318.172.552.172.925v18.092c0 .405.057.693-.057 1.095a2.24 2.24 0 0 1-.377.81h12.452l.75-2.424c-.34.23-.576.345-.981.459-.897.29-1.443.348-2.397.348M17.903 68.611a2.037 2.037 0 0 0-.308-.091c-.046-.01-.147.031-.184.001l-.027-.039c-.125.002-.498.117-.612.18-.284.149-.395.3-.64.323l-.053.009a.909.909 0 0 1-.258-.192c-.024-.044.009-.149.018-.197.103-.493.826-.337 1.117-.472a.9.9 0 0 0 .35-.336c.078-.125.193-.615.153-.752-.014-.046-.19-.56-.114-.781.018-.056.066-.192.043-.248a.656.656 0 0 0-.108-.108c-.15.056-.28.144-.43.176-.164.036-.356-.005-.512.02-.301.037-.688.223-.841.553-.308.664.006 1.065.025 1.186.005.05.03.042.038.096.006.155-.294.359-.443.338-.108-.017-.304-.22-.316-.368a1.82 1.82 0 0 1 .042-.333c.015-.046.046-.2.043-.246-.01-.147.033-.38-.031-.534-.026-.057-.171-.35-.22-.402a6.967 6.967 0 0 0-.538-.333 5.53 5.53 0 0 0-.267-.025 32.977 32.977 0 0 0-.45-.027l-.41-.237c-.028-.015-.155.025-.167.025-.02.05-.07.113-.068.168.01.197.138.31.089.525-.056.23-.183.473-.18.71.004.318.267.721.543.912.048.037.159.05.205.076.095.05.134.119.228.147.044.017.144-.015.182-.006.034.01.56.354.58.398.027.052-.022.18-.057.223-.106.135-.252.135-.38.116l-.044.028c-.053-.036-.14-.08-.162-.1-.045-.044-.068-.13-.117-.17a4.59 4.59 0 0 0-.417-.198c-.144-.058-.5-.058-.657.027-.084.047-.236.21-.303.27-.035.036-.095.051-.125.089-.123.157-.163.418-.247.573-.065.114-.18.184-.218.304-.033.108.005.13.063.266.006 0 .056-.01.056-.01s.292.203.426.347c.13.144.492.326.652.318.07 0 .34-.048.39-.058.125-.021.321-.111.437-.212.042-.036.336-.507.354-.552.007-.03.35-.435.493-.346.014.004.21.175.248.26.02.05-.01.218-.032.266-.066.137-.247.19-.384.332a2.57 2.57 0 0 0-.279.44c-.03.076-.006.166-.006.25-.007.225.015.5.26.772.039.044.162.123.207.165.166.165.357.483.553.444.192-.039.294-.26.504-.382.222-.132.446-.345.536-.555.037-.093.022-.294.033-.396 0-.012-.065-.32-.123-.44-.042-.087-.077-.226-.174-.339-.119-.135-.408-.204-.476-.375-.006-.009.033-.072.033-.082-.003-.053-.045-.066-.052-.119a.852.852 0 0 1 .087-.274c.163-.183.5-.116.613 0 .16.163.123.366.216.528.204.36.732.6 1.007.558.058-.008.262-.04.32-.068.166-.082.3-.246.383-.328.13-.13.41-.254.492-.404.063-.123-.129-.474-.183-.613-.067-.168-.223-.543-.406-.67M77.162 69.587c-.08-.156-.123-.419-.247-.575-.027-.037-.087-.052-.123-.088-.07-.06-.216-.224-.302-.269-.159-.087-.514-.087-.658-.03a4.214 4.214 0 0 0-.419.203c-.046.039-.067.124-.115.165-.024.022-.111.067-.164.102l-.04-.03c-.128.02-.276.02-.383-.113-.036-.046-.085-.172-.057-.225.02-.045.545-.382.58-.397.037-.01.139.02.184.007.096-.031.13-.096.226-.148.048-.027.16-.04.207-.075.273-.188.539-.594.543-.914.002-.237-.126-.48-.18-.708-.052-.214.078-.33.086-.526.003-.056-.047-.119-.065-.168-.015 0-.142-.042-.17-.024-.028.013-.412.235-.412.235l-.447.026c-.033.003-.232.022-.27.027a11.5 11.5 0 0 0-.537.334 2.831 2.831 0 0 0-.216.404c-.067.148-.024.384-.034.53-.002.046.03.2.043.245.024.07.047.329.044.338-.01.144-.21.35-.318.364-.149.021-.447-.183-.441-.339.004-.052.033-.045.037-.096.017-.115.333-.52.026-1.185-.155-.331-.543-.516-.842-.555-.154-.02-.346.017-.511-.016-.152-.033-.282-.123-.43-.179 0 0-.097.08-.107.11-.024.054.027.192.042.246.073.222-.102.735-.117.781-.04.137.08.63.157.752a.874.874 0 0 0 .348.34c.291.13 1.013-.025 1.118.468.012.048.04.153.018.197-.023.048-.23.19-.258.192l-.053-.008c-.244-.022-.361-.175-.639-.32-.117-.064-.489-.18-.616-.184l-.024.04c-.038.03-.138-.011-.183 0a2.143 2.143 0 0 0-.31.09c-.184.128-.341.502-.406.673-.054.138-.246.49-.181.613.08.149.36.27.489.4.087.085.216.248.385.33.059.03.261.06.321.073.272.037.803-.203 1.005-.564.092-.16.054-.362.216-.528.11-.116.452-.182.615 0a.829.829 0 0 1 .084.277c-.007.05-.05.065-.05.117 0 .01.035.072.034.084-.068.168-.36.239-.477.375-.096.111-.134.25-.177.34-.057.12-.12.425-.12.437.009.102-.005.303.034.395.086.21.31.424.534.556.21.122.31.344.504.381.197.04.389-.277.557-.44.042-.044.165-.124.207-.167.243-.269.26-.545.256-.774 0-.081.023-.173-.006-.25a2.79 2.79 0 0 0-.279-.44c-.136-.141-.32-.194-.385-.332-.021-.046-.05-.214-.03-.265.034-.086.232-.255.247-.261.144-.087.485.318.495.346.014.047.312.518.353.554.115.1.312.19.435.213.052.007.32.057.391.058.162.005.52-.175.651-.315.135-.147.43-.35.43-.35l.053.007c.056-.135.1-.156.062-.263-.038-.118-.153-.192-.218-.304" fill="#FFF"/></g></svg>