<svg xmlns="http://www.w3.org/2000/svg" viewBox="0 0 1440 320" preserveAspectRatio="none">
  <path fill="#4f7b38" fill-opacity="0.7" d="M0,192L48,176C96,160,192,128,288,133.3C384,139,480,181,576,186.7C672,192,768,160,864,144C960,128,1056,128,1152,149.3C1248,171,1344,213,1392,234.7L1440,256L1440,320L1392,320C1344,320,1248,320,1152,320C1056,320,960,320,864,320C768,320,672,320,576,320C480,320,384,320,288,320C192,320,96,320,48,320L0,320Z"></path>
  <path fill="#b7d886" fill-opacity="0.8" d="M0,224L60,213.3C120,203,240,181,360,181.3C480,181,600,203,720,218.7C840,235,960,245,1080,229.3C1200,213,1320,171,1380,149.3L1440,128L1440,320L1380,320C1320,320,1200,320,1080,320C960,320,840,320,720,320C600,320,480,320,360,320C240,320,120,320,60,320L0,320Z"></path>
  <path fill="#6aa329" fill-opacity="0.9" d="M0,256L80,240C160,224,320,192,480,197.3C640,203,800,245,960,256C1120,267,1280,245,1360,234.7L1440,224L1440,320L1360,320C1280,320,1120,320,960,320C800,320,640,320,480,320C320,320,160,320,80,320L0,320Z"></path>
</svg>