<?xml version="1.0" encoding="UTF-8"?>
<svg id="Layer_1" xmlns="http://www.w3.org/2000/svg" xmlns:xlink="http://www.w3.org/1999/xlink" version="1.1" viewBox="0 0 749.1 735.4">
  <!-- Generator: Adobe Illustrator 29.3.1, SVG Export Plug-In . SVG Version: 2.1.0 Build 151)  -->
  <defs>
    <style>
      .st0, .st1 {
        fill: none;
      }

      .st1 {
        stroke-width: 3px;
      }

      .st1, .st2 {
        stroke: #fff;
        stroke-miterlimit: 10;
      }

      .st3 {
        fill: url(#linear-gradient);
      }

      .st4 {
        fill: #6aa329;
      }

      .st5, .st2 {
        fill: #fff;
      }

      .st6 {
        fill: #101806;
      }

      .st7 {
        display: none;
      }
    </style>
    <linearGradient id="linear-gradient" x1="190.6" y1="297.6" x2="564.5" y2="297.6" gradientTransform="translate(0 -93.6)" gradientUnits="userSpaceOnUse">
      <stop offset="0" stop-color="#ed1c24"/>
      <stop offset=".2" stop-color="#f26522"/>
      <stop offset=".4" stop-color="#ffde17"/>
      <stop offset=".6" stop-color="#6aa329"/>
      <stop offset=".8" stop-color="#21409a"/>
      <stop offset="1" stop-color="#7f3f98"/>
    </linearGradient>
  </defs>
  <path id="Cutout_background" class="st0" d="M731,630.8h-164.6c-10.6,0-16-12.8-8.5-20.4,61.2-62.6,96.1-148.4,96.1-254.6,0-188.4-110.1-323.2-281.5-323.2S94,167.4,94,355.8s34,192,94.4,254.6c7.4,7.6,2,20.4-8.6,20.4H19c-6.6,0-12,5.4-12,12v74c0,6.6,5.4,12,12,12h712c6.6,0,12-5.4,12-12v-74c0-6.6-5.4-12-12-12h0Z"/>
  <rect id="Black_background" class="st7" y="59.1" width="749.1" height="676.2"/>
  <g id="Box_w_x2F_o_white">
    <path class="st6" d="M156.8,330.3l-10.9,8.9-10.9,8.9-10.9,8.9c-5.3,3.9-.4,7.9,11.9,12.3s25.3,8.4,49.9,14.2c5-.6,2-1.2,6.1-.2s111.8,29,116.5,30.4,1.3.2,1.9.1,1.2-.3,1.8-.6c2.6-1.6,6.7-4.6,11.6-8.5s10.8-8.9,17.2-14.3,14.6-12.5,20.2-17.2,7.6-6.3,9.3-7.5,1.2-1,1.7-1.6.6-.9-.1-1.3l-1-.4c-.5-.2-1.3-.4-1.8-.5-5-.8-16.8-3.8-32.2-7.8-15.5-4-34.8-9.2-54.7-14.3-20.7-5.3-42.1-10.6-60.7-14.7s-34.6-6.9-44.3-7.3c-1.2,0-2.4,0-3.5.3s-2.1.4-3,.7-1.6.7-2.1,1-1.6,1.3-1.6,1.3l-10.3,8.9v.3Z"/>
    <path class="st6" d="M628.6,356.8c0-.1-.2-.3-.4-.4l-25-20.9-24.3-20.3c-.5-.4-1.1-.5-1.7-.4l-96.3,23.5s-70.6,17.6-95.7,23.4c-.3,0-2.1.7-2.5,1s-.4.2-.4.4l-.3.8v.8c0,.3.1.8.3,1.2s1.2,1.6,1.4,1.8l26.9,20.6,26.4,21.6c.9.7,3.3,2.4,4.7,3.5s4.1.4,5.1,0c6.3-2.1,20.7-5.7,39.2-10.5s41.1-11.1,63.6-16.3l9.3-2.4,8.1-2.1,1.3-.3s.8.2,0,0c.5.2,1.1.3,1.6.3s1.1,0,1.6-.1l3.1-.9,3.1-.9c6.4-1.6,8.5-2.2,10.2-2.9s3.2-1.3,8.3-2.9c6.5-2,12.9-3.8,18.3-5.7s10-3.6,12.6-5.4c1.6-1.2,2.6-2.5,2.8-3.6s-.9-2.5-1.3-3.1v.2Z"/>
    <path class="st6" d="M190.8,386.9h-1.2c-1.8.3-3.1,1.9-2.9,3.7l16.4,155.1c.2,1.4,1.1,2.4,2.2,2.8l162.6,58.1c.3.2,1.7.7,3.6.7s2.6-2.8,2.6-4.6v-234c0-.3-.4-.5-.6-.3l-60.7,48.3c-.8.6-1.7.7-2.7.5l-119.3-30.3h0Z"/>
    <path class="st6" d="M443.3,417.3c-.9.2-2.6.2-3.2-.4,0,0-1.2-.6-1.7-1.1l-16.5-13.5-34.6-27.6-8.3-6.5c-.3-.2-.7,0-.7.3v236c0,1.7,1.5,2.5,3.1,2.5s2.3-.6,2.6-.8l164.6-57.6s.2,0,.2,0c.3-.5.5-.9.6-1.5l16.8-158.9h0c0-.8-.6-1.5-1.4-1.5h-.3l-118.9,30.2h0l-2.3.4h0Z"/>
  </g>
  <g id="Box">
    <path id="Box_background" class="st5" d="M377,360.5c-.3-.2-2-.5-2.4-.5-13.3-.3-195.8-53.6-207.2-43.4s-.4.6-.7.8l-48.6,38.9c-9.1,6.7,18.7,18.2,59.2,28.3,1.4.3,6.2.6,5.7,2s-.3,1-.2,1.6l17,158.7c.2,1.4,1.1,2.5,2.3,2.9l167.1,60.3c1.5.5,2.9,0,3.5,0,.9,0,3.6-2.3,3.6-4.2l.2,1.1c0,1.7,1.5,2.9,3.2,3.1s2.2-.2,2.5-.4l170-60.1c1.1-.4,1.9-1.4,2-2.6l17.1-159.4h0c-.4-3.7,1.2-2,4-3.3,40.5-10.2,69.8-21.7,59.4-29.2h0l-54.4-43.5c-.6-.5-1.4-.6-2.1-.5l-201,49.2"/>
    <g id="Box1">
      <path class="st6" d="M157.1,330l-10.9,8.9-10.9,8.9-10.9,8.9c-5.3,3.9-.4,7.9,11.9,12.3s25.3,8.4,49.9,14.2c5-.6,2-1.2,6.1-.2s111.8,29,116.5,30.4,1.3.2,1.9.1,1.2-.3,1.8-.6c2.6-1.6,6.7-4.6,11.6-8.5s10.8-8.9,17.2-14.3,14.6-12.5,20.2-17.2,7.6-6.3,9.3-7.5,1.2-1,1.7-1.6.6-.9-.1-1.3l-1-.4c-.5-.2-1.3-.4-1.8-.5-5-.8-16.8-3.8-32.2-7.8s-34.8-9.2-54.7-14.3-42.1-10.6-60.7-14.7-34.6-6.9-44.3-7.3c-1.2,0-2.4,0-3.5.3s-2.1.4-3,.7-1.6.7-2.1,1-1.6,1.3-1.6,1.3l-10.3,8.9v.3Z"/>
      <path class="st6" d="M629,356.5c0-.1-.2-.3-.4-.4l-25-20.9-24.3-20.3c-.5-.4-1.1-.5-1.7-.4l-96.3,23.5s-70.6,17.6-95.7,23.4-2.1.7-2.5,1-.4.2-.4.4l-.3.8v.8c0,.3.1.8.3,1.2s1.2,1.6,1.4,1.8l26.9,20.6,26.4,21.6c.9.7,3.3,2.4,4.7,3.5s4.1.4,5.1,0c6.3-2.1,20.7-5.7,39.2-10.5s41.1-11.1,63.6-16.3l9.3-2.4,8.1-2.1,1.3-.3s.8.2,0,0c.5.2,1.1.3,1.6.3s1.1,0,1.6-.1l3.1-.9,3.1-.9c6.4-1.6,8.5-2.2,10.2-2.9s3.2-1.3,8.3-2.9c6.5-2,12.9-3.8,18.3-5.7s10-3.6,12.6-5.4c1.6-1.2,2.6-2.5,2.8-3.6s-.9-2.5-1.3-3.1v.2Z"/>
      <path class="st6" d="M191.1,386.5h-1.2c-1.8.3-3.1,1.9-2.9,3.7l16.4,155.1c.2,1.4,1.1,2.4,2.2,2.8l162.6,58.1c.3.2,1.7.7,3.6.7s2.6-2.8,2.6-4.6v-234c0-.3-.4-.5-.6-.3l-60.7,48.3c-.8.6-1.7.7-2.7.5l-119.3-30.3h0Z"/>
      <path class="st6" d="M443.6,416.9c-.9.2-2.6.2-3.2-.4,0,0-1.2-.6-1.7-1.1l-16.5-13.5-34.6-27.6-8.3-6.5c-.3-.2-.7,0-.7.3v236c0,1.7,1.5,2.5,3.1,2.5s2.3-.6,2.6-.8l164.6-57.6s.2,0,.2,0c.3-.5.5-.9.6-1.5l16.8-158.9h0c0-.8-.6-1.5-1.4-1.5h-.3l-118.9,30.2h0l-2.3.4h0Z"/>
    </g>
  </g>
  <g id="Brain">
    <path id="Brain_background_2" class="st3" d="M319,82.8l-102.7,57.8c-7.2,4.1-12.3,11.1-14,19.2-8.5,41.9-23,55.3,3.6,95.4,3.9,5.8,9.7,10,16.5,11.7,48.3,12.6,62.3,8.9,92.3,51.4,6.7,9.5,18.5,14,29.9,11.4,22-5.2,51.8-20.8,67.8-28.4,4.6-2.1,9.6-3.1,14.6-2.6l71.9,6c2.9.2,5.8.1,8.7-.6,48.2-10.8,71.9-65.6,46.7-108-10.2-17.2-24.2-34.7-38.5-59.2-3-5.1-7.5-9.2-12.9-11.7-67-30.8-101-59.4-183.9-42.4"/>
    <path id="Brain_background" class="st2" d="M319,82.8l-102.7,57.8c-7.2,4.1-12.3,11.1-14,19.2-8.5,41.9-23,55.3,3.6,95.4,3.9,5.8,9.7,10,16.5,11.7,48.3,12.6,62.3,8.9,92.3,51.4,6.7,9.5,18.5,14,29.9,11.4,22-5.2,51.8-20.8,67.8-28.4,4.6-2.1,9.6-3.1,14.6-2.6l71.9,6c2.9.2,5.8.1,8.7-.6,48.2-10.8,71.9-65.6,46.7-108-10.2-17.2-24.2-34.7-38.5-59.2-3-5.1-7.5-9.2-12.9-11.7-67-30.8-101-59.4-183.9-42.4"/>
    <g id="Electrods">
      <path class="st4" d="M320.4,201.1c-1-3.4-3.3-4.6-5-5-.6-.1-1.2-.2-1.8-.2-2.3,0-4.8,1-6.3,2.7-1.2,1.3-2.4,3.6-1.3,6.9,1,3.4,3.3,4.6,5,5,2.8.7,6.2-.4,8.1-2.5,1.2-1.3,2.4-3.6,1.3-6.9h0Z"/>
      <path class="st4" d="M271.4,171.3h.1c-1.6-1.4-3.1-1.8-4.5-1.8s-1.7.2-2.4.4c-2.7,1-5,3.8-5.4,6.7-.3,1.7,0,4.3,2.7,6.4,2.7,2.3,5.3,2,6.9,1.3,2.7-1,4.9-3.8,5.3-6.6.3-1.7,0-4.3-2.7-6.4h0Z"/>
      <path class="st4" d="M321.8,151.8h0c-.3,1.8,0,4.4,2.7,6.5,2.8,2.3,5.3,2,7,1.3,2.7-1.1,4.9-3.8,5.3-6.7.3-1.7,0-4.3-2.8-6.4-1.6-1.4-3.1-1.8-4.5-1.8s-1.7.2-2.4.4c-2.7,1-5,3.8-5.4,6.7h.1,0Z"/>
      <path class="st4" d="M387,200.1c-1.6-1.4-3.1-1.8-4.5-1.8s-1.7.2-2.4.4c-2.7,1-5,3.8-5.4,6.7-.3,1.7,0,4.3,2.7,6.4,2.8,2.3,5.3,2,7,1.3,2.7-1.1,4.9-3.8,5.3-6.7h0c.3-1.6,0-4.2-2.8-6.3h.1,0Z"/>
      <path class="st4" d="M340.7,265.7h0c2.7-1,4.9-3.8,5.3-6.6.3-1.7,0-4.3-2.7-6.4-1.6-1.4-3.1-1.8-4.5-1.8s-1.7.2-2.4.4c-2.7,1-5,3.8-5.4,6.7-.3,1.7,0,4.3,2.7,6.4,2.7,2.3,5.3,2,6.9,1.3h.1Z"/>
      <path class="st4" d="M523.1,264.5c2.7,2.3,5.3,2,7,1.3,2.7-1.1,4.9-3.8,5.3-6.7.3-1.7,0-4.3-2.8-6.4-1.6-1.4-3.1-1.8-4.5-1.8s-1.7.2-2.4.4c-2.7,1-5,3.8-5.4,6.7h0c-.3,1.8,0,4.4,2.7,6.5h.1Z"/>
      <path class="st4" d="M442,138.6c-1-3.4-3.3-4.5-5-4.9-.6,0-1.2-.2-1.8-.2-2.4,0-4.9,1-6.4,2.7-1.2,1.3-2.4,3.5-1.3,6.8,1,3.4,3.2,4.6,4.9,5,2.8.7,6.2-.3,8.2-2.5,1.2-1.3,2.4-3.6,1.4-6.9h0Z"/>
      <path class="st4" d="M447.9,254.8c-1.4,0-1.7.2-2.4.4-2.7,1-5,3.8-5.4,6.7-.3,1.7,0,4.3,2.7,6.4,1.4,1.2,3,1.8,4.8,1.8,3.1,0,6.1-2.5,7.2-5.8,1-2.9,0-5.7-2.4-7.7h0c-1.6-1.3-3.1-1.8-4.5-1.8h0Z"/>
      <path class="st4" d="M267,232.4c3.1,0,6.1-2.5,7.2-5.8,1-2.9,0-5.7-2.4-7.7-1.6-1.3-3.1-1.8-4.5-1.8s-1.7.2-2.4.4c-2.7,1-5,3.8-5.4,6.7-.3,1.7,0,4.3,2.7,6.4h0c1.4,1.2,3,1.8,4.8,1.8h0Z"/>
      <path class="st4" d="M460.1,210.2c-.6-.1-1.2-.2-1.8-.2-2.3,0-4.8,1-6.3,2.7-1.2,1.3-2.4,3.6-1.3,6.9,1,3.4,3.3,4.6,5,5,2.8.7,6.2-.4,8.1-2.5,1.2-1.3,2.4-3.6,1.3-6.9-1-3.4-3.3-4.6-5-5h0Z"/>
    </g>
    <path id="Brain_foreground" class="st6" d="M557.1,200.2c-.4-.8-1.9-.9-2.5-.2l-14.9,15.4c-.9.9-2.9,3.5-3.4,5.5l-4.7,26.5c0,.7.3,1.2.8,1.6.8.7.8,1,1.6,1.6,3,2.4,4.4,5.6,3.9,9.2-.6,4-3.5,7.6-7.2,9-1.2.4-2.3.7-3.5.7-2.3,0-4.5-.8-6.4-2.5-3-2.3-4.3-5.6-3.8-9.2.6-4,3.5-7.6,7.3-9,.7-.3,1.4-.4,2.1-.5.7,0,1.2-.6,1.3-1.2l4.7-27.2v-.2c.8-2.9,1.9-5.1,2.9-5.9l16.6-17.1c.7-.7,1.7-1.9,1.4-2.5-.3-.5-23.9-33.2-38.2-57.7-3-5.1-4.7-6.1-9.1-9.6-1.7-1-1.4-1.6-4.4-3,0,0-3.4-2.1-3.4-1l-6.4,86.2v.3c-.4.5,0,4.6-6.3,6.6h-.1l-15.6,1.7c-.8,0-1.4.6-1.5,1.3-.2,2-1.2,2.7-2.6,4.2-2.1,2.3-5.4,3.7-8.5,3.7s-1.7,0-2.5-.3c-3.5-.8-6.1-3.3-7.2-7-1.2-3.6-.5-7.1,2-9.8,2.7-2.9,7.1-4.3,11-3.4,3.2.7,5.7,2.9,6.9,6.1.2.6.8.9,1.4.9l12.9-1.1h0c4.5-1,5.9-2.3,6.5-7.1l6.3-83.1c0-1-4.8-3.4-4.4-3.2-17.8-8.6-33.6-16.8-49-23.6h-.2c-.2,0-.3.2-.3.4l-2.4,32.8c0,.8.4,1.8,1.2,2,3.5.8,4.5,2.8,5.6,6.5,1.2,3.7.5,7.2-2,9.8h0c-2.2,2.2-5.4,3.6-8.6,3.6s-3-.4-3.8-.7c-3.5-.8-4.7-2.9-5.8-6.6-1.2-3.6-.5-7,1.9-9.7,1.8-1.9,4.2-3.2,6.8-3.6.7-.1,1.1-1.4,1.1-2.1l2.5-34v-.2s0,0-.2-.2h0c-15.2-6.5-43.7-12.8-51.1-14.4-.9-.2-2.6-.3-2.5.5.5,10.6,3.3,68,3.7,75.3.1,3-.1,4.2-1.3,5.9s-1.8,2-2.9,2.8l-58.2,36.5-.6.4c.7,3.3,0,6.3-2.3,8.7-2.1,2.3-5.4,3.7-8.5,3.7s-3-.3-4.2-.8h0c-3.1-1.6-4.4-2.9-5.5-6.5-1.2-3.6-.5-7.1,2-9.8,2.7-2.9,7.1-4.3,11-3.4,1.8.6,3.2,1.5,4.3,2.6.5.7,1.3,2.3,2.4,1.7l56.9-35.6c2.8-2.1,3.3-4,3.1-6.2l-3.2-75.2c0-1.4-.9-1.5-1.3-1.7s-36.2-.4-59.6,4.4c-.1,0-.3,0-.4.2-.9.5-1.4,1.4-1.5,2.4v1.1l-2.6,26.1c0,.6,0,1,.4,2l13,26.3c.3.5.8.9,1.4.8,2.5-.2,4.8.6,7,2.4,3,2.4,4.4,5.6,3.9,9.2-.6,4-3.5,7.6-7.2,9-1.2.4-2.3.7-3.5.7-2.3,0-4.5-.8-6.4-2.5-3-2.3-4.3-5.6-3.8-9.2.4-3.2,2.4-6.1,5.2-7.9.6-.4.9-1.2.5-1.9l-12.7-26.1c-.3-.5-.4-1.7-.4-2.4.3-2.8,1.8-18.2,2.4-24.8.1-1.2-1.2-2-2.2-1.4l-95.9,54c-7.2,4.1-12.3,11.1-14,19.2-2.7,13.1-5.9,23.4-8.3,32.6s.3,2.8,1.6,3.4l14,6.7,13.1,6c.3.1.8.7,3,.5,1.3-.2,1.9-.4,4.2-2.1h0l14.4-12.5,12.5-10.1c.3-.2.9-.9,1-1.3,0-.3-.3-.7-.5-1-.6-1-.6-1.3-.9-2.4-.2-1.1-.3-2.3-.1-3.4.3-2,1.2-3.9,2.5-5.5s2.9-2.8,4.8-3.5c1.7-.6,3.4-.8,5.1-.5s3.3,1.1,4.7,2.3c1.5,1.2,2.6,2.6,3.2,4.1s.8,3.2.5,5l-.4,1.8h0c-.5,1.6-1.5,3.1-2.6,4.3-1.2,1.2-2.6,2.2-4.1,2.8-.6.2-1.2.4-1.8.5s-1.1.2-1.8.2-1.7-.1-2.5-.4c-.8-.2-1.6-.6-2.4-1.1-.3-.2-.6-.2-.9-.2s-.6.1-.8.4l-15.4,12.8-13.4,11.1c-.2.2-2.5,2-4.9,2.6-2.4.5-5.1-.7-5.4-.8l-11.9-5.6-13.9-6.5-1-.6h0c-.7-.4-1.6,0-1.8.8-3.3,16.6-2,31,13.8,54.8,2.4,3.5,7.1,7.2,8.8,8.4s.8.2,1.2,0l40.8-33.6c.5-.4.7-1.1.5-1.7-.5-1.5-.8-3-.5-4.6.6-4,3.5-7.6,7.3-9,3.4-1.3,6.9-.6,9.8,1.8,3.5,2.8,4.8,6.9,3.4,11-1.5,4.5-5.6,7.7-10,7.8-2.6,0-4.9-.9-6.7-2.5-.1,0-.2-.2-.3-.3-.5-.5-1.3-.5-1.9,0l-39.4,32.1c-.4.3-.3,1,.2,1.2,1.1.4,2.6.9,3.5,1.1,38.1,9.9,54,8.8,74.1,29.2.9.9,2.3.4,2.5-.3l1.7-8.8c.5-3.3.9-4.4,2.5-5.6,0,0,20.3-11.2,25.7-16.6.2-.2.2-.7.2-.7-1.4-3.9-1.3-3.1-.8-6.7.6-4,3.5-7.6,7.3-9,3.4-1.3,6.9-.6,9.8,1.8,3,2.4,4.4,5.6,3.8,9.2-.6,4-3.5,7.6-7.2,9-1.2.4-2.3.7-3.5.7h-2.1c-1.3-.2-2.4-1-2.9-1.4-.2-.1-.4-.2-.6,0l-25.6,16.3c-1,.6-1.7,1.6-1.9,2.7s-.3,1.6-.6,2.7l-2.2,11.1v1.5c4.2,5,7.3,9.5,12.3,16.6,6.7,9.5,18.5,14,29.9,11.4,20.7-4.9,48.3-19,64.9-27,.8-.4,1.1-1.4.6-2.2l-28.1-42c-1.3-1.8-2.4-6.6-2.3-8.8v-32.6c.1-.6-.3-1.2-.8-1.4-1.2-.4-2.3-1-3.4-1.9-3-2.3-4.3-5.6-3.8-9.2.6-4,3.5-7.6,7.3-9,3.4-1.3,6.9-.6,9.8,1.8,3,2.4,4.4,5.6,3.9,9.2-.6,4-3.5,7.6-7.2,9-.5.2-.9.3-1.4.4-.7.2-1.2.8-1.2,1.5l.3,32.3c0,1.4,1.7,6.6,2.3,7.2l27.8,42.7c.4.6,1.1.8,1.8.6,3.9-1.4,8-2,12.1-1.6l31.1,2.5c1-.1.9-.4.7-.9l-10.1-27c-.2-.6-.9-1-1.6-1h-.5c-2.5-.5-3.6-1.3-5.7-2.5h0c-3-2.4-4.3-5.6-3.8-9.2.6-4,3.5-7.6,7.3-9,3.4-1.3,6.9-.6,9.8,1.8,3.5,2.8,4.8,6.9,3.4,11-.9,2.5-1.8,4-3.8,5.4-.6.4-.6,1.7-.3,2.3l10.7,28.6c.2.5.7.9,1.3,1l33.4,2.7c2.9.2,5.8,0,8.7-.6,46.6-10.4,70.8-61.9,49.6-103.6l-.7.3Z"/>
    <path id="Brain_outline" class="st1" d="M319,82.8l-102.7,57.8c-7.2,4.1-12.3,11.1-14,19.2-8.5,41.9-23,55.3,3.6,95.4,3.9,5.8,9.7,10,16.5,11.7,48.3,12.6,62.3,8.9,92.3,51.4,6.7,9.5,18.5,14,29.9,11.4,22-5.2,51.8-20.8,67.8-28.4,4.6-2.1,9.6-3.1,14.6-2.6l71.9,6c2.9.2,5.8.1,8.7-.6,48.2-10.8,71.9-65.6,46.7-108-10.2-17.2-24.2-34.7-38.5-59.2-3-5.1-7.5-9.2-12.9-11.7-67-30.8-101-59.4-183.9-42.4"/>
  </g>
  <!-- <g id="NEURODESK.org">
    <g id="NEURO_.org">
      <path class="st6" d="M86.7,708.2h-6l-27.9-33.7c-1.2-1.4-2.2-2.9-3.2-4.4.2,3.5.4,6.3.4,8.3v29.8h-8v-54.5h6l26.8,32.1c1.9,2.3,3.4,4.3,4.3,5.9-.2-5.1-.4-8.2-.4-9.4v-28.6h8v54.5h0Z"/>
      <path class="st6" d="M145.7,708.4h-39.3v-54.5h38.9v9.3h-30.1v12.1h17.6v9.3h-17.6v13.5h30.5v10.2h0Z"/>
      <path class="st6" d="M205,695.5c0,5.1-.7,8.5-2,10.2-1.4,1.8-3.8,2.6-7.4,2.6h-24c-3.6,0-6.1-.9-7.4-2.6-1.4-1.8-2-5.2-2-10.2v-41.6h8.9v44.2h25.2v-44.2h8.9v41.6h-.2Z"/>
      <path class="st6" d="M269.6,708.4h-12.7l-15.3-20.6h-8.4v20.6h-8.7v-54.5h32.6c5.7,0,8.6,3.5,8.6,10.6v12.8c0,5.3-1.5,8.6-4.4,9.8-1.1.5-4.2.7-9.2.7l17.6,20.6h-.1ZM257.1,674.2v-6.5c0-1.8-.4-3-1.1-3.6-.5-.5-1.5-.7-2.9-.7h-19.9v15.2h19.9c1.4,0,2.3-.2,2.9-.7.7-.6,1.1-1.8,1.1-3.6h0Z"/>
      <path class="st6" d="M329.7,695.5c0,5.1-.7,8.5-2,10.2-1.3,1.8-3.8,2.6-7.4,2.6h-28c-3.6,0-6.1-.9-7.4-2.6-1.4-1.8-2-5.2-2-10.2v-28.7c0-5.1.7-8.5,2-10.2,1.3-1.8,3.8-2.6,7.4-2.6h28c3.6,0,6.1.9,7.4,2.6,1.4,1.8,2,5.2,2,10.2v28.7ZM320.9,698.2v-34.5h-29.2v34.5h29.2Z"/>
      <path class="st6" d="M588,705.3c0,1.4,0,2.2-.4,2.6s-.8.6-1.9.6h-5.6c-.9,0-1.4-1-1.4-3.2v-6.9c0-1.4,0-2.2.4-2.6s.8-.6,1.9-.6h5.6c.9,0,1.4,1,1.4,3.2v6.9Z"/>
      <path class="st6" d="M630.9,699.9c0,3.4-.5,5.7-1.4,6.8s-2.7,1.7-5.1,1.7h-19.5c-2.5,0-4.2-.6-5.1-1.7s-1.4-3.4-1.4-6.9v-19.1c0-3.5.5-5.8,1.4-6.9s2.7-1.7,5.1-1.7h19.5c2.5,0,4.2.6,5.1,1.7s1.4,3.4,1.4,6.9v19.1h0ZM624.7,701.5v-22.6h-20.4v22.6h20.4Z"/>
      <path class="st6" d="M672.8,708.4h-8.8l-10.6-13.7h-5.8v13.7h-6.1v-36.1h22.7c3.9,0,5.9,2.3,5.9,7v8.5c0,3.5-1,5.7-3.2,6.5-.7.3-2.8.4-6.2.4l12,13.7h0ZM664.4,685.6v-4.2c0-1.9-.9-2.9-2.8-2.9h-14v10h14c1.9,0,2.8-1,2.8-2.9h0Z"/>
      <path class="st6" d="M711.1,699.9c0,3.4-.5,5.7-1.4,6.8s-2.7,1.7-5.1,1.7h-18.3c-2.5,0-4.2-.6-5.1-1.7-.9-1.1-1.4-3.4-1.4-6.8v-19.1c0-3.4.5-5.7,1.4-6.8s2.7-1.7,5.1-1.7h18.3c2.6,0,4.3.6,5.2,1.8s1.3,3.6,1.3,7.3l-6,1.5v-3.8h-19.2v22.6h19.2v-7.7h-10v-6.4h16.1v12.5h0v-.2Z"/>
    </g>
    <g id="DESK">
      <path class="st4" d="M393.1,680.7c0,10.6-2.8,18.3-8.4,23.3-3.2,2.8-8.4,4.2-15.6,4.2h-22.2v-54.5h24.5c6.6,0,11.8,2.1,15.5,6.3,4.2,4.6,6.3,11.5,6.3,20.6h0ZM383.9,680.5c0-11.3-4.2-17-12.5-17h-15.7v34.5h11.4c5.4,0,9.3-1,11.8-3,3.3-2.7,5-7.5,5-14.6h0Z"/>
      <path class="st4" d="M448.6,708.3h-39.3v-54.5h38.9v9.3h-30.1v12.1h17.6v9.3h-17.6v13.5h30.5v10.2h0Z"/>
      <path class="st4" d="M506.3,695.4c0,5.1-.7,8.5-2.1,10.2-1.4,1.8-3.9,2.6-7.5,2.6h-23.5c-3.9,0-6.4-1-7.7-3-1.2-2-1.8-5.8-1.8-11.4l7.8-2.3v6.4h26.9v-12.5h-23.8c-3.6,0-6.1-.9-7.4-2.6-1.4-1.8-2-5.2-2-10.2v-6c0-5.1.7-8.5,2-10.2,1.3-1.8,3.8-2.6,7.4-2.6h21.6c3.6,0,6.1.9,7.5,2.7s2,5.3,2,10.4l-7.8,2.6v-6.2h-24.9v11.7h23.8c3.6,0,6.1.9,7.5,2.6,1.4,1.8,2.1,5.2,2.1,10.2v7.5h-.1Z"/>
      <path class="st4" d="M570.6,708.3h-14.2l-22.8-24v24h-8.9v-54.5h8.9v22.7l21.1-22.7h12.8l-25.2,25.7,28.3,28.8h0Z"/>
    </g>
  </g> -->
  <g id="NEURODESK.org_on_dark" class="st7">
    <g id="NEURO_.org1">
      <path class="st5" d="M86.7,708.2h-6l-27.9-33.7c-1.2-1.4-2.2-2.9-3.2-4.4.2,3.5.4,6.3.4,8.3v29.8h-8v-54.5h6l26.8,32.1c1.9,2.3,3.4,4.3,4.3,5.9-.2-5.1-.4-8.2-.4-9.4v-28.6h8v54.5h0Z"/>
      <path class="st5" d="M145.7,708.4h-39.3v-54.5h38.9v9.3h-30.1v12.1h17.6v9.3h-17.6v13.5h30.5v10.2h0Z"/>
      <path class="st5" d="M205,695.5c0,5.1-.7,8.5-2,10.2-1.4,1.8-3.8,2.6-7.4,2.6h-24c-3.6,0-6.1-.9-7.4-2.6-1.4-1.8-2-5.2-2-10.2v-41.6h8.9v44.2h25.2v-44.2h8.9v41.6h-.2Z"/>
      <path class="st5" d="M269.6,708.4h-12.7l-15.3-20.6h-8.4v20.6h-8.7v-54.5h32.6c5.7,0,8.6,3.5,8.6,10.6v12.8c0,5.3-1.5,8.6-4.4,9.8-1.1.5-4.2.7-9.2.7l17.6,20.6h-.1ZM257.1,674.2v-6.5c0-1.8-.4-3-1.1-3.6-.5-.5-1.5-.7-2.9-.7h-19.9v15.2h19.9c1.4,0,2.3-.2,2.9-.7.7-.6,1.1-1.8,1.1-3.6h0Z"/>
      <path class="st5" d="M329.7,695.5c0,5.1-.7,8.5-2,10.2-1.3,1.8-3.8,2.6-7.4,2.6h-28c-3.6,0-6.1-.9-7.4-2.6-1.4-1.8-2-5.2-2-10.2v-28.7c0-5.1.7-8.5,2-10.2,1.3-1.8,3.8-2.6,7.4-2.6h28c3.6,0,6.1.9,7.4,2.6,1.4,1.8,2,5.2,2,10.2v28.7ZM320.9,698.2v-34.5h-29.2v34.5h29.2Z"/>
      <path class="st5" d="M588,705.3c0,1.4,0,2.2-.4,2.6s-.8.6-1.9.6h-5.6c-.9,0-1.4-1-1.4-3.2v-6.9c0-1.4,0-2.2.4-2.6s.8-.6,1.9-.6h5.6c.9,0,1.4,1,1.4,3.2v6.9Z"/>
      <path class="st5" d="M630.9,699.9c0,3.4-.5,5.7-1.4,6.8s-2.7,1.7-5.1,1.7h-19.5c-2.5,0-4.2-.6-5.1-1.7s-1.4-3.4-1.4-6.9v-19.1c0-3.5.5-5.8,1.4-6.9s2.7-1.7,5.1-1.7h19.5c2.5,0,4.2.6,5.1,1.7s1.4,3.4,1.4,6.9v19.1h0ZM624.7,701.5v-22.6h-20.4v22.6h20.4Z"/>
      <path class="st5" d="M672.8,708.4h-8.8l-10.6-13.7h-5.8v13.7h-6.1v-36.1h22.7c3.9,0,5.9,2.3,5.9,7v8.5c0,3.5-1,5.7-3.2,6.5-.7.3-2.8.4-6.2.4l12,13.7h0ZM664.4,685.6v-4.2c0-1.9-.9-2.9-2.8-2.9h-14v10h14c1.9,0,2.8-1,2.8-2.9h0Z"/>
      <path class="st5" d="M711.1,699.9c0,3.4-.5,5.7-1.4,6.8s-2.7,1.7-5.1,1.7h-18.3c-2.5,0-4.2-.6-5.1-1.7-.9-1.1-1.4-3.4-1.4-6.8v-19.1c0-3.4.5-5.7,1.4-6.8s2.7-1.7,5.1-1.7h18.3c2.6,0,4.3.6,5.2,1.8s1.3,3.6,1.3,7.3l-6,1.5v-3.8h-19.2v22.6h19.2v-7.7h-10v-6.4h16.1v12.5h0v-.2Z"/>
    </g>
    <g id="DESK1">
      <path class="st4" d="M393.1,680.7c0,10.6-2.8,18.3-8.4,23.3-3.2,2.8-8.4,4.2-15.6,4.2h-22.2v-54.5h24.5c6.6,0,11.8,2.1,15.5,6.3,4.2,4.6,6.3,11.5,6.3,20.6h0ZM383.9,680.5c0-11.3-4.2-17-12.5-17h-15.7v34.5h11.4c5.4,0,9.3-1,11.8-3,3.3-2.7,5-7.5,5-14.6h0Z"/>
      <path class="st4" d="M448.6,708.3h-39.3v-54.5h38.9v9.3h-30.1v12.1h17.6v9.3h-17.6v13.5h30.5v10.2h0Z"/>
      <path class="st4" d="M506.3,695.4c0,5.1-.7,8.5-2.1,10.2-1.4,1.8-3.9,2.6-7.5,2.6h-23.5c-3.9,0-6.4-1-7.7-3-1.2-2-1.8-5.8-1.8-11.4l7.8-2.3v6.4h26.9v-12.5h-23.8c-3.6,0-6.1-.9-7.4-2.6-1.4-1.8-2-5.2-2-10.2v-6c0-5.1.7-8.5,2-10.2,1.3-1.8,3.8-2.6,7.4-2.6h21.6c3.6,0,6.1.9,7.5,2.7s2,5.3,2,10.4l-7.8,2.6v-6.2h-24.9v11.7h23.8c3.6,0,6.1.9,7.5,2.6,1.4,1.8,2.1,5.2,2.1,10.2v7.5h-.1Z"/>
      <path class="st4" d="M570.6,708.3h-14.2l-22.8-24v24h-8.9v-54.5h8.9v22.7l21.1-22.7h12.8l-25.2,25.7,28.3,28.8h0Z"/>
    </g>
  </g>
  <g id="NEURODESK" class="st7">
    <g id="NEURO">
      <path class="st6" d="M101.5,715.5h-7.6l-35-42.2c-1.5-1.8-2.8-3.6-4-5.6.3,4.4.5,7.9.5,10.5v37.3h-10v-68.2h7.6l33.5,40.2c2.4,2.9,4.2,5.4,5.4,7.4-.3-6.4-.5-10.3-.5-11.8v-35.8h10v68.2h0Z"/>
      <path class="st6" d="M175.4,715.8h-49.2v-68.2h48.8v11.6h-37.7v15.2h22v11.6h-22v16.9h38.1v12.8h0Z"/>
      <path class="st6" d="M249.7,699.7c0,6.4-.9,10.6-2.5,12.8-1.7,2.2-4.8,3.3-9.3,3.3h-30.1c-4.5,0-7.6-1.1-9.3-3.3s-2.5-6.5-2.5-12.8v-52.1h11.1v55.4h31.6v-55.4h11.1v52.1h-.1Z"/>
      <path class="st6" d="M330.6,715.8h-15.9l-19.2-25.8h-10.5v25.8h-10.9v-68.2h40.8c7.2,0,10.7,4.4,10.7,13.2v16c0,6.6-1.8,10.7-5.5,12.3-1.4.6-5.2.9-11.5.9l22,25.8h0ZM314.9,673v-8.2c0-2.3-.5-3.8-1.4-4.5-.7-.6-1.9-.9-3.6-.9h-24.9v19h24.9c1.7,0,2.9-.3,3.6-.9.9-.7,1.4-2.2,1.4-4.5h0Z"/>
      <path class="st6" d="M405.9,699.7c0,6.4-.9,10.6-2.5,12.8-1.7,2.2-4.8,3.3-9.3,3.3h-35.1c-4.5,0-7.6-1.1-9.3-3.3-1.7-2.2-2.5-6.5-2.5-12.8v-36c0-6.4.9-10.6,2.5-12.8,1.7-2.2,4.8-3.3,9.3-3.3h35.1c4.5,0,7.6,1.1,9.3,3.3,1.7,2.2,2.5,6.5,2.5,12.8v36ZM394.8,703v-43.2h-36.6v43.2h36.6Z"/>
    </g>
    <g id="DESK2">
      <path class="st4" d="M485.3,681.1c0,13.2-3.5,23-10.5,29.2-4,3.5-10.5,5.3-19.6,5.3h-27.8v-68.2h30.7c8.3,0,14.7,2.6,19.4,7.9,5.2,5.8,7.9,14.4,7.9,25.8h-.1ZM473.8,680.9c0-14.2-5.2-21.3-15.7-21.3h-19.7v43.2h14.3c6.8,0,11.7-1.2,14.8-3.7,4.2-3.4,6.3-9.4,6.3-18.2h0Z"/>
      <path class="st4" d="M554.8,715.6h-49.2v-68.2h48.8v11.6h-37.7v15.2h22v11.6h-22v16.9h38.1v12.8h0Z"/>
      <path class="st4" d="M627.1,699.5c0,6.4-.9,10.6-2.6,12.8-1.7,2.2-4.8,3.3-9.3,3.3h-29.5c-4.9,0-8.1-1.2-9.6-3.7s-2.3-7.2-2.3-14.3l9.8-2.9v8.1h33.7v-15.6h-29.8c-4.5,0-7.6-1.1-9.3-3.3s-2.5-6.5-2.5-12.8v-7.5c0-6.4.9-10.6,2.5-12.8,1.7-2.2,4.8-3.3,9.3-3.3h27.1c4.6,0,7.7,1.1,9.3,3.4s2.5,6.6,2.5,13l-9.8,3.3v-7.8h-31.2v14.7h29.8c4.5,0,7.6,1.1,9.3,3.3s2.6,6.5,2.6,12.8v9.4h0Z"/>
      <path class="st4" d="M707.6,715.6h-17.8l-28.5-30v30h-11.2v-68.2h11.2v28.4l26.4-28.4h16.1l-31.6,32.1,35.5,36.1h-.1Z"/>
    </g>
  </g>
  <g id="NEURODESK_on_dark" class="st7">
    <g id="NEURO1">
      <path class="st5" d="M101.5,715.6h-7.6l-35-42.2c-1.5-1.8-2.8-3.6-4-5.6.3,4.4.5,7.9.5,10.5v37.3h-10v-68.2h7.6l33.5,40.2c2.4,2.9,4.2,5.4,5.4,7.4-.3-6.4-.5-10.3-.5-11.8v-35.8h10v68.2h0Z"/>
      <path class="st5" d="M175.4,716h-49.2v-68.2h48.8v11.6h-37.7v15.2h22v11.6h-22v16.9h38.1v12.8h0Z"/>
      <path class="st5" d="M249.7,699.8c0,6.4-.9,10.6-2.5,12.8-1.7,2.2-4.8,3.3-9.3,3.3h-30.1c-4.5,0-7.6-1.1-9.3-3.3s-2.5-6.5-2.5-12.8v-52.1h11.1v55.4h31.6v-55.4h11.1v52.1h-.1Z"/>
      <path class="st5" d="M330.6,716h-15.9l-19.2-25.8h-10.5v25.8h-10.9v-68.2h40.8c7.2,0,10.7,4.4,10.7,13.2v16c0,6.6-1.8,10.7-5.5,12.3-1.4.6-5.2.9-11.5.9l22,25.8h0ZM314.9,673.1v-8.2c0-2.3-.5-3.8-1.4-4.5-.7-.6-1.9-.9-3.6-.9h-24.9v19h24.9c1.7,0,2.9-.3,3.6-.9.9-.7,1.4-2.2,1.4-4.5h0Z"/>
      <path class="st5" d="M405.9,699.8c0,6.4-.9,10.6-2.5,12.8-1.7,2.2-4.8,3.3-9.3,3.3h-35.1c-4.5,0-7.6-1.1-9.3-3.3-1.7-2.2-2.5-6.5-2.5-12.8v-36c0-6.4.9-10.6,2.5-12.8,1.7-2.2,4.8-3.3,9.3-3.3h35.1c4.5,0,7.6,1.1,9.3,3.3,1.7,2.2,2.5,6.5,2.5,12.8v36ZM394.8,703.1v-43.2h-36.6v43.2h36.6Z"/>
    </g>
    <g id="DESK3">
      <path class="st4" d="M485.3,681.3c0,13.2-3.5,23-10.5,29.2-4,3.5-10.5,5.3-19.6,5.3h-27.8v-68.2h30.7c8.3,0,14.7,2.6,19.4,7.9,5.2,5.8,7.9,14.4,7.9,25.8h-.1ZM473.8,681c0-14.2-5.2-21.3-15.7-21.3h-19.7v43.2h14.3c6.8,0,11.7-1.2,14.8-3.7,4.2-3.4,6.3-9.4,6.3-18.2h0Z"/>
      <path class="st4" d="M554.8,715.8h-49.2v-68.2h48.8v11.6h-37.7v15.2h22v11.6h-22v16.9h38.1v12.8h0Z"/>
      <path class="st4" d="M627.1,699.7c0,6.4-.9,10.6-2.6,12.8-1.7,2.2-4.8,3.3-9.3,3.3h-29.5c-4.9,0-8.1-1.2-9.6-3.7s-2.3-7.2-2.3-14.3l9.8-2.9v8.1h33.7v-15.6h-29.8c-4.5,0-7.6-1.1-9.3-3.3s-2.5-6.5-2.5-12.8v-7.5c0-6.4.9-10.6,2.5-12.8,1.7-2.2,4.8-3.3,9.3-3.3h27.1c4.6,0,7.7,1.1,9.3,3.4s2.5,6.6,2.5,13l-9.8,3.3v-7.8h-31.2v14.7h29.8c4.5,0,7.6,1.1,9.3,3.3s2.6,6.5,2.6,12.8v9.4h0Z"/>
      <path class="st4" d="M707.6,715.8h-17.8l-28.5-30v30h-11.2v-68.2h11.2v28.4l26.4-28.4h16.1l-31.6,32.1,35.5,36.1h-.1Z"/>
    </g>
  </g>
</svg>