<?xml version="1.0" encoding="UTF-8"?>
<svg id="Layer_1" xmlns="http://www.w3.org/2000/svg" version="1.1" viewBox="0 0 545.5 580.8">
  <!-- Generator: Adobe Illustrator 29.3.1, SVG Export Plug-In . SVG Version: 2.1.0 Build 151)  -->
  <defs>
    <style>
      .st0 {
        fill: none;
        stroke-width: 3px;
      }

      .st0, .st1 {
        stroke: #fff;
        stroke-miterlimit: 10;
      }

      .st2 {
        fill: #6ba442;
      }

      .st3, .st1 {
        fill: #fff;
      }

      .st4 {
        fill: #171d11;
      }
    </style>
  </defs>
  <g id="Box">
    <path id="Box_background" class="st3" d="M274.3,309.2c-.3-.2-2-.5-2.4-.5-13.3-.3-195.8-53.6-207.2-43.4s-.4.6-.7.8l-48.6,38.9c-9.1,6.7,18.7,18.2,59.2,28.3,1.4.3,6.2.6,5.7,2s-.3,1-.2,1.6l17,158.7c.2,1.4,1.1,2.5,2.3,2.9l167.1,60.3c1.5.5,2.9,0,3.5,0,.9,0,3.6-2.3,3.6-4.2l.2,1.1c0,1.7,1.5,2.9,3.2,3.1s2.2-.2,2.5-.4l170-60.1c1.1-.4,1.9-1.4,2-2.6l17.1-159.4h0c-.4-3.7,1.2-2,4-3.3,40.5-10.2,69.8-21.7,59.4-29.2h0l-54.4-43.5c-.6-.5-1.4-.6-2.1-.5l-201,49.2"/>
    <g id="Box1">
      <path class="st4" d="M54.4,278.7l-10.9,8.9-10.9,8.9-10.9,8.9c-5.3,3.9-.4,7.9,11.9,12.3s25.3,8.4,49.9,14.2c5-.6,2-1.2,6.1-.2s111.8,29,116.5,30.4,1.3.2,1.9.1,1.2-.3,1.8-.6c2.6-1.6,6.7-4.6,11.6-8.5s10.8-8.9,17.2-14.3,14.6-12.5,20.2-17.2,7.6-6.3,9.3-7.5,1.2-1,1.7-1.6.6-.9-.1-1.3l-1-.4c-.5-.2-1.3-.4-1.8-.5-5-.8-16.8-3.8-32.2-7.8s-34.8-9.2-54.7-14.3c-19.9-5.1-42.1-10.6-60.7-14.7s-34.6-6.9-44.3-7.3c-1.2,0-2.4,0-3.5.3s-2.1.4-3,.7-1.6.7-2.1,1-1.6,1.3-1.6,1.3l-10.3,8.9v.3h0Z"/>
      <path class="st4" d="M526.3,305.2c0-.1-.2-.3-.4-.4l-25-20.9-24.3-20.3c-.5-.4-1.1-.5-1.7-.4l-96.3,23.5s-70.6,17.6-95.7,23.4c0,0-2.1.7-2.5,1s-.4.2-.4.4l-.3.8v.8c0,.3.1.8.3,1.2s1.2,1.6,1.4,1.8l26.9,20.6,26.4,21.6c.9.7,3.3,2.4,4.7,3.5s4.1.4,5.1,0c6.3-2.1,20.7-5.7,39.2-10.5s41.1-11.1,63.6-16.3l9.3-2.4,8.1-2.1,1.3-.3s.8.2,0,0c.5.2,1.1.3,1.6.3s1.1,0,1.6-.1l3.1-.9,3.1-.9c6.4-1.6,8.5-2.2,10.2-2.9s3.2-1.3,8.3-2.9c6.5-2,12.9-3.8,18.3-5.7s10-3.6,12.6-5.4c1.6-1.2,2.6-2.5,2.8-3.6s-.9-2.5-1.3-3.1v.2h0Z"/>
      <path class="st4" d="M88.4,335.2h-1.2c-1.8.3-3.1,1.9-2.9,3.7l16.4,155.1c.2,1.4,1.1,2.4,2.2,2.8l162.6,58.1c.3.2,1.7.7,3.6.7s2.6-2.8,2.6-4.6v-234c0-.3-.4-.5-.6-.3l-60.7,48.3c-.8.6-1.7.7-2.7.5l-119.3-30.3h0Z"/>
      <path class="st4" d="M340.9,365.6c-.9.2-2.6.2-3.2-.4,0,0-1.2-.6-1.7-1.1l-16.5-13.5-34.6-27.6-8.3-6.5c-.3-.2-.7,0-.7.3v236c0,1.7,1.5,2.5,3.1,2.5s2.3-.6,2.6-.8l164.6-57.6h.2c.3-.5.5-.9.6-1.5l16.8-158.9h0c0-.8-.6-1.5-1.4-1.5h-.3l-118.9,30.2h0l-2.3.4h0Z"/>
    </g>
  </g>
  <path id="Brain_background" class="st1" d="M216.3,31.5l-102.7,57.8c-7.2,4.1-12.3,11.1-14,19.2-8.5,41.9-23,55.3,3.6,95.4,3.9,5.8,9.7,10,16.5,11.7,48.3,12.6,62.3,8.9,92.3,51.4,6.7,9.5,18.5,14,29.9,11.4,22-5.2,51.8-20.8,67.8-28.4,4.6-2.1,9.6-3.1,14.6-2.6l71.9,6c2.9.2,5.8.1,8.7-.6,48.2-10.8,71.9-65.6,46.7-108-10.2-17.2-24.2-34.7-38.5-59.2-3-5.1-7.5-9.2-12.9-11.7-67-30.8-101-59.4-183.9-42.4"/>
  <g id="Electrods">
    <path class="st2" d="M217.7,149.8c-1-3.4-3.3-4.6-5-5-.6-.1-1.2-.2-1.8-.2-2.3,0-4.8,1-6.3,2.7-1.2,1.3-2.4,3.6-1.3,6.9,1,3.4,3.3,4.6,5,5,2.8.7,6.2-.4,8.1-2.5,1.2-1.3,2.4-3.6,1.3-6.9h0Z"/>
    <path class="st2" d="M168.7,120h.1c-1.6-1.4-3.1-1.8-4.5-1.8s-1.7.2-2.4.4c-2.7,1-5,3.8-5.4,6.7-.3,1.7,0,4.3,2.7,6.4,2.7,2.3,5.3,2,6.9,1.3,2.7-1,4.9-3.8,5.3-6.6.3-1.7,0-4.3-2.7-6.4h0Z"/>
    <path class="st2" d="M219.1,100.5h0c-.3,1.8,0,4.4,2.7,6.5,2.8,2.3,5.3,2,7,1.3,2.7-1.1,4.9-3.8,5.3-6.7.3-1.7,0-4.3-2.8-6.4-1.6-1.4-3.1-1.8-4.5-1.8s-1.7.2-2.4.4c-2.7,1-5,3.8-5.4,6.7h.1,0Z"/>
    <path class="st2" d="M284.3,148.8c-1.6-1.4-3.1-1.8-4.5-1.8s-1.7.2-2.4.4c-2.7,1-5,3.8-5.4,6.7-.3,1.7,0,4.3,2.7,6.4,2.8,2.3,5.3,2,7,1.3,2.7-1.1,4.9-3.8,5.3-6.7h0c.3-1.6,0-4.2-2.8-6.3h.1,0Z"/>
    <path class="st2" d="M238,214.4h0c2.7-1,4.9-3.8,5.3-6.6.3-1.7,0-4.3-2.7-6.4-1.6-1.4-3.1-1.8-4.5-1.8s-1.7.2-2.4.4c-2.7,1-5,3.8-5.4,6.7-.3,1.7,0,4.3,2.7,6.4,2.7,2.3,5.3,2,6.9,1.3h.1Z"/>
    <path class="st2" d="M420.4,213.2c2.7,2.3,5.3,2,7,1.3,2.7-1.1,4.9-3.8,5.3-6.7.3-1.7,0-4.3-2.8-6.4-1.6-1.4-3.1-1.8-4.5-1.8s-1.7.2-2.4.4c-2.7,1-5,3.8-5.4,6.7h0c-.3,1.8,0,4.4,2.7,6.5h.1Z"/>
    <path class="st2" d="M339.3,87.3c-1-3.4-3.3-4.5-5-4.9-.6,0-1.2-.2-1.8-.2-2.4,0-4.9,1-6.4,2.7-1.2,1.3-2.4,3.5-1.3,6.8,1,3.4,3.2,4.6,4.9,5,2.8.7,6.2-.3,8.2-2.5,1.2-1.3,2.4-3.6,1.4-6.9h0Z"/>
    <path class="st2" d="M345.2,203.5c-1.4,0-1.7.2-2.4.4-2.7,1-5,3.8-5.4,6.7-.3,1.7,0,4.3,2.7,6.4,1.4,1.2,3,1.8,4.8,1.8,3.1,0,6.1-2.5,7.2-5.8,1-2.9,0-5.7-2.4-7.7h0c-1.6-1.3-3.1-1.8-4.5-1.8h0Z"/>
    <path class="st2" d="M164.3,181.1c3.1,0,6.1-2.5,7.2-5.8,1-2.9,0-5.7-2.4-7.7-1.6-1.3-3.1-1.8-4.5-1.8s-1.7.2-2.4.4c-2.7,1-5,3.8-5.4,6.7-.3,1.7,0,4.3,2.7,6.4h0c1.4,1.2,3,1.8,4.8,1.8h0Z"/>
    <path class="st2" d="M357.4,158.9c-.6-.1-1.2-.2-1.8-.2-2.3,0-4.8,1-6.3,2.7-1.2,1.3-2.4,3.6-1.3,6.9,1,3.4,3.3,4.6,5,5,2.8.7,6.2-.4,8.1-2.5,1.2-1.3,2.4-3.6,1.3-6.9-1-3.4-3.3-4.6-5-5h0Z"/>
  </g>
  <path id="Brain_foreground" class="st4" d="M454.4,148.9c-.4-.8-1.9-.9-2.5-.2l-14.9,15.4c-.9.9-2.9,3.5-3.4,5.5l-4.7,26.5c0,.7.3,1.2.8,1.6.8.7.8,1,1.6,1.6,3,2.4,4.4,5.6,3.9,9.2-.6,4-3.5,7.6-7.2,9-1.2.4-2.3.7-3.5.7-2.3,0-4.5-.8-6.4-2.5-3-2.3-4.3-5.6-3.8-9.2.6-4,3.5-7.6,7.3-9,.7-.3,1.4-.4,2.1-.5.7,0,1.2-.6,1.3-1.2l4.7-27.2v-.2c.8-2.9,1.9-5.1,2.9-5.9l16.6-17.1c.7-.7,1.7-1.9,1.4-2.5-.3-.5-23.9-33.2-38.2-57.7-3-5.1-4.7-6.1-9.1-9.6-1.7-1-1.4-1.6-4.4-3,0,0-3.4-2.1-3.4-1l-6.4,86.2v.3c-.4.5,0,4.6-6.3,6.6h-.1l-15.6,1.7c-.8,0-1.4.6-1.5,1.3-.2,2-1.2,2.7-2.6,4.2-2.1,2.3-5.4,3.7-8.5,3.7s-1.7,0-2.5-.3c-3.5-.8-6.1-3.3-7.2-7-1.2-3.6-.5-7.1,2-9.8,2.7-2.9,7.1-4.3,11-3.4,3.2.7,5.7,2.9,6.9,6.1.2.6.8.9,1.4.9l12.9-1.1h0c4.5-1,5.9-2.3,6.5-7.1l6.3-83.1c0-1-4.8-3.4-4.4-3.2-17.8-8.6-33.6-16.8-49-23.6h-.2c-.2,0-.3.2-.3.4l-2.4,32.8c0,.8.4,1.8,1.2,2,3.5.8,4.5,2.8,5.6,6.5,1.2,3.7.5,7.2-2,9.8h0c-2.2,2.2-5.4,3.6-8.6,3.6s-3-.4-3.8-.7c-3.5-.8-4.7-2.9-5.8-6.6-1.2-3.6-.5-7,1.9-9.7,1.8-1.9,4.2-3.2,6.8-3.6.7-.1,1.1-1.4,1.1-2.1l2.5-34v-.2l-.2-.2h0c-15.2-6.5-43.7-12.8-51.1-14.4-.9-.2-2.6-.3-2.5.5.5,10.6,3.3,68,3.7,75.3.1,3-.1,4.2-1.3,5.9s-1.8,2-2.9,2.8l-58.2,36.5-.6.4c.7,3.3,0,6.3-2.3,8.7-2.1,2.3-5.4,3.7-8.5,3.7s-3-.3-4.2-.8h0c-3.1-1.6-4.4-2.9-5.5-6.5-1.2-3.6-.5-7.1,2-9.8,2.7-2.9,7.1-4.3,11-3.4,1.8.6,3.2,1.5,4.3,2.6.5.7,1.3,2.3,2.4,1.7l56.9-35.6c2.8-2.1,3.3-4,3.1-6.2l-3.2-75.2c0-1.4-.9-1.5-1.3-1.7s-36.2-.4-59.6,4.4c-.1,0-.3,0-.4.2-.9.5-1.4,1.4-1.5,2.4v1.1l-2.6,26.1c0,.6,0,1,.4,2l13,26.3c.3.5.8.9,1.4.8,2.5-.2,4.8.6,7,2.4,3,2.4,4.4,5.6,3.9,9.2-.6,4-3.5,7.6-7.2,9-1.2.4-2.3.7-3.5.7-2.3,0-4.5-.8-6.4-2.5-3-2.3-4.3-5.6-3.8-9.2.4-3.2,2.4-6.1,5.2-7.9.6-.4.9-1.2.5-1.9l-12.7-26.1c-.3-.5-.4-1.7-.4-2.4.3-2.8,1.8-18.2,2.4-24.8.1-1.2-1.2-2-2.2-1.4l-95.9,54c-7.2,4.1-12.3,11.1-14,19.2-2.7,13.1-5.9,23.4-8.3,32.6s.3,2.8,1.6,3.4l14,6.7,13.1,6c.3.1.8.7,3,.5,1.3-.2,1.9-.4,4.2-2.1h0l14.4-12.5,12.5-10.1c.3-.2.9-.9,1-1.3,0-.3-.3-.7-.5-1-.6-1-.6-1.3-.9-2.4-.2-1.1-.3-2.3-.1-3.4.3-2,1.2-3.9,2.5-5.5s2.9-2.8,4.8-3.5c1.7-.6,3.4-.8,5.1-.5s3.3,1.1,4.7,2.3c1.5,1.2,2.6,2.6,3.2,4.1s.8,3.2.5,5l-.4,1.8h0c-.5,1.6-1.5,3.1-2.6,4.3-1.2,1.2-2.6,2.2-4.1,2.8-.6.2-1.2.4-1.8.5s-1.1.2-1.8.2-1.7-.1-2.5-.4c-.8-.2-1.6-.6-2.4-1.1-.3-.2-.6-.2-.9-.2s-.6.1-.8.4l-15.4,12.8-13.4,11.1c-.2.2-2.5,2-4.9,2.6-2.4.5-5.1-.7-5.4-.8l-11.9-5.6-13.9-6.5-1-.6h0c-.7-.4-1.6,0-1.8.8-3.3,16.6-2,31,13.8,54.8,2.4,3.5,7.1,7.2,8.8,8.4s.8.2,1.2,0l40.8-33.6c.5-.4.7-1.1.5-1.7-.5-1.5-.8-3-.5-4.6.6-4,3.5-7.6,7.3-9,3.4-1.3,6.9-.6,9.8,1.8,3.5,2.8,4.8,6.9,3.4,11-1.5,4.5-5.6,7.7-10,7.8-2.6,0-4.9-.9-6.7-2.5-.1,0-.2-.2-.3-.3-.5-.5-1.3-.5-1.9,0l-39.4,32.1c-.4.3-.3,1,.2,1.2,1.1.4,2.6.9,3.5,1.1,38.1,9.9,54,8.8,74.1,29.2.9.9,2.3.4,2.5-.3l1.7-8.8c.5-3.3.9-4.4,2.5-5.6,0,0,20.3-11.2,25.7-16.6.2-.2.2-.7.2-.7-1.4-3.9-1.3-3.1-.8-6.7.6-4,3.5-7.6,7.3-9,3.4-1.3,6.9-.6,9.8,1.8,3,2.4,4.4,5.6,3.8,9.2-.6,4-3.5,7.6-7.2,9-1.2.4-2.3.7-3.5.7h-2.1c-1.3-.2-2.4-1-2.9-1.4-.2-.1-.4-.2-.6,0l-25.6,16.3c-1,.6-1.7,1.6-1.9,2.7s-.3,1.6-.6,2.7l-2.2,11.1v1.5c4.2,5,7.3,9.5,12.3,16.6,6.7,9.5,18.5,14,29.9,11.4,20.7-4.9,48.3-19,64.9-27,.8-.4,1.1-1.4.6-2.2l-28.1-42c-1.3-1.8-2.4-6.6-2.3-8.8v-32.6c.1-.6-.3-1.2-.8-1.4-1.2-.4-2.3-1-3.4-1.9-3-2.3-4.3-5.6-3.8-9.2.6-4,3.5-7.6,7.3-9,3.4-1.3,6.9-.6,9.8,1.8,3,2.4,4.4,5.6,3.9,9.2-.6,4-3.5,7.6-7.2,9-.5.2-.9.3-1.4.4-.7.2-1.2.8-1.2,1.5l.3,32.3c0,1.4,1.7,6.6,2.3,7.2l27.8,42.7c.4.6,1.1.8,1.8.6,3.9-1.4,8-2,12.1-1.6l31.1,2.5c1-.1.9-.4.7-.9l-10.1-27c-.2-.6-.9-1-1.6-1h-.5c-2.5-.5-3.6-1.3-5.7-2.5h0c-3-2.4-4.3-5.6-3.8-9.2.6-4,3.5-7.6,7.3-9,3.4-1.3,6.9-.6,9.8,1.8,3.5,2.8,4.8,6.9,3.4,11-.9,2.5-1.8,4-3.8,5.4-.6.4-.6,1.7-.3,2.3l10.7,28.6c.2.5.7.9,1.3,1l33.4,2.7c2.9.2,5.8,0,8.7-.6,46.6-10.4,70.8-61.9,49.6-103.6l-.7.3h0Z"/>
  <path id="Brain_outline" class="st0" d="M216.3,31.5l-102.7,57.8c-7.2,4.1-12.3,11.1-14,19.2-8.5,41.9-23,55.3,3.6,95.4,3.9,5.8,9.7,10,16.5,11.7,48.3,12.6,62.3,8.9,92.3,51.4,6.7,9.5,18.5,14,29.9,11.4,22-5.2,51.8-20.8,67.8-28.4,4.6-2.1,9.6-3.1,14.6-2.6l71.9,6c2.9.2,5.8.1,8.7-.6,48.2-10.8,71.9-65.6,46.7-108-10.2-17.2-24.2-34.7-38.5-59.2-3-5.1-7.5-9.2-12.9-11.7-67-30.8-101-59.4-183.9-42.4"/>
</svg>