<?xml version="1.0" encoding="utf-8"?>
<!-- Generator: Adobe Illustrator 24.3.0, SVG Export Plug-In . SVG Version: 6.00 Build 0)  -->
<svg version="1.1" id="Layer_1" xmlns="http://www.w3.org/2000/svg" xmlns:xlink="http://www.w3.org/1999/xlink" x="0px" y="0px"
	 viewBox="0 0 522 541.3" style="enable-background:new 0 0 522 541.3;" xml:space="preserve">
<style type="text/css">
	.st0{fill:none;stroke:#FFFFFF;stroke-width:3;stroke-miterlimit:10;}
	.st1{fill:#231F20;stroke:#FFFFFF;stroke-width:2;stroke-miterlimit:10;}
	.st2{enable-background:new    ;}
	.st3{fill:#FFFFFF;}
</style>
<g id="Layer_1-2">
	<path d="M210.4,6.6L107.7,64.4c-7.2,4.1-12.3,11.1-14,19.2c-8.5,41.9-23,55.3,3.6,95.4c3.9,5.8,9.7,10,16.5,11.7
		c48.3,12.6,62.3,8.9,92.3,51.4c6.7,9.5,18.5,14,29.9,11.4c22-5.2,51.8-20.8,67.8-28.4c4.6-2.1,9.6-3.1,14.6-2.6l71.9,6
		c2.9,0.2,5.8,0.1,8.7-0.6c48.2-10.8,71.9-65.6,46.7-108c-10.2-17.2-24.2-34.7-38.5-59.2c-3-5.1-7.5-9.2-12.9-11.7
		C327.3,18.2,293.3-10.4,210.4,6.6"/>
	<path class="st0" d="M210.4,6.6L107.7,64.4c-7.2,4.1-12.3,11.1-14,19.2c-8.5,41.9-23,55.3,3.6,95.4c3.9,5.8,9.7,10,16.5,11.7
		c48.3,12.6,62.3,8.9,92.3,51.4c6.7,9.5,18.5,14,29.9,11.4c22-5.2,51.8-20.8,67.8-28.4c4.6-2.1,9.6-3.1,14.6-2.6l71.9,6
		c2.9,0.2,5.8,0.1,8.7-0.6c48.2-10.8,71.9-65.6,46.7-108c-10.2-17.2-24.2-34.7-38.5-59.2c-3-5.1-7.5-9.2-12.9-11.7
		C327.3,18.2,293.3-10.4,210.4,6.6"/>
	<path d="M233.1,172.3c-9-7.5-20.6,6.9-11.4,14.1C230.8,193.9,242.3,179.5,233.1,172.3z"/>
	<path class="st0" d="M233.1,172.3c-9-7.5-20.6,6.9-11.4,14.1C230.8,193.9,242.3,179.5,233.1,172.3z"/>
	<path d="M226.7,68.1c-9-7.5-20.6,6.9-11.4,14.1C224.4,89.7,236,75.3,226.7,68.1z"/>
	<path class="st0" d="M226.7,68.1c-9-7.5-20.6,6.9-11.4,14.1C224.4,89.7,236,75.3,226.7,68.1z"/>
	<path d="M424.6,175.1c-9-7.5-20.6,6.9-11.4,14.1C422.3,196.7,433.9,182.3,424.6,175.1z"/>
	<path class="st0" d="M424.6,175.1c-9-7.5-20.6,6.9-11.4,14.1C422.3,196.7,433.9,182.3,424.6,175.1z"/>
	<path d="M163.4,92.8c-9-7.5-20.6,6.9-11.4,14.1C161.1,114.4,172.6,100,163.4,92.8z"/>
	<path class="st0" d="M163.4,92.8c-9-7.5-20.6,6.9-11.4,14.1C161.1,114.4,172.6,100,163.4,92.8z"/>
	<path class="st1" d="M2.6,286.2l49.2-39.4c3.3-15.5,198.6,44.1,207.7,43c1.4,0.4,2.3,1.9,1.9,3.3c-0.1,0.5-0.5,1-0.9,1.4
		c-2.2,0.5-60.8,51.7-63.7,50.2C196.4,339.2-19.4,302.4,2.6,286.2z"/>
	<path class="st1" d="M519,285.1l-55.3-44.3l-202.2,49.5v3.3l63.4,51.3C325.7,339,544,303.3,519,285.1z"/>
	<path class="st1" d="M261.5,296.7v240c0,1.9-1.5,3.4-3.4,3.4c-0.4,0-0.8-0.1-1.1-0.2L86.6,479.7c-1.2-0.4-2.1-1.5-2.3-2.9
		l-17-158.7c-0.2-1.9,1.1-3.5,3-3.8c0.4,0,0.8,0,1.2,0.1L195,345.4c1,0.2,2.1,0,2.9-0.6l63.6-49.9L261.5,296.7z"/>
	<path class="st1" d="M261.5,296.7v240.5c0,1.7,1.3,3.1,3,3.1c0,0,0,0,0,0c0.3,0,0.7-0.1,1-0.2l171.1-60.5c1.1-0.4,1.9-1.4,2-2.6
		l17.1-159.4c0.2-1.7-1-3.2-2.7-3.4c-0.4,0-0.7,0-1.1,0.1l-124,31.1c-0.9,0.2-1.9,0-2.6-0.6l-63.8-50V296.7z"/>
	<path d="M335,60.8c-3.3-11.3-21-5.8-17.3,5.3C320.9,77.4,338.6,72,335,60.8z"/>
	<path class="st0" d="M335,60.8c-3.3-11.3-21-5.8-17.3,5.3C320.9,77.4,338.6,72,335,60.8z"/>
	<path d="M278.5,121.5c-9-7.5-20.6,6.9-11.4,14.1C276.2,143.1,287.8,128.7,278.5,121.5z"/>
	<path class="st0" d="M278.5,121.5c-9-7.5-20.6,6.9-11.4,14.1C276.2,143.1,287.8,128.7,278.5,121.5z"/>
	<polyline class="st0" points="218.9,66.4 204.5,36.8 207.4,8.3 	"/>
	<polyline class="st0" points="151.9,106.3 116.5,136.8 84.4,120.4 	"/>
	<polyline class="st0" points="223.5,187.8 193.2,208.1 191.7,223.4 	"/>
	<path d="M357.5,137.2c-3.3-11.3-20.9-5.9-17.3,5.3C343.5,153.8,361.1,148.4,357.5,137.2z"/>
	<path class="st0" d="M357.5,137.2c-3.3-11.3-20.9-5.9-17.3,5.3C343.5,153.8,361.1,148.4,357.5,137.2z"/>
	<path d="M213.5,123.2c-3.3-11.3-20.9-5.9-17.3,5.3C199.5,139.8,217.1,134.4,213.5,123.2z"/>
	<path class="st0" d="M213.5,123.2c-3.3-11.3-20.9-5.9-17.3,5.3C199.5,139.8,217.1,134.4,213.5,123.2z"/>
	<polyline class="st0" points="213.5,123.2 276.5,83.7 272.8,1.8 	"/>
	<polyline class="st0" points="272,136.8 272.3,177.6 303.5,224.8 	"/>
	<path d="M163.4,140.4c-9-7.5-20.6,6.9-11.4,14.1c1.6,1.4,3.6,2.1,5.7,2.1C164.9,156.4,170.7,146.2,163.4,140.4z"/>
	<path class="st0" d="M163.4,140.4c-9-7.5-20.6,6.9-11.4,14.1c1.6,1.4,3.6,2.1,5.7,2.1C164.9,156.4,170.7,146.2,163.4,140.4z"/>
	<line class="st0" x1="150" y1="152.5" x2="107.5" y2="187.2"/>
	<polyline class="st0" points="420,173.8 426,141.5 445.2,120.2 	"/>
	<path d="M360.5,178.5c-9-7.5-20.6,6.9-11.4,14.1c1.6,1.4,3.6,2.1,5.7,2.1C362,194.5,367.8,184.3,360.5,178.5z"/>
	<path class="st0" d="M360.5,178.5c-9-7.5-20.6,6.9-11.4,14.1c1.6,1.4,3.6,2.1,5.7,2.1C362,194.5,367.8,184.3,360.5,178.5z"/>
	<line class="st0" x1="357.5" y1="194.7" x2="369.8" y2="226.8"/>
	<line class="st0" x1="327.4" y1="54.9" x2="330.5" y2="19.5"/>
	<polyline class="st0" points="358.5,138.3 380.8,138.3 380.8,42.6 	"/>
	<g class="st2">
		<path class="st3" d="M91.1,467l6.5-30.4l2.6,0.9l14.4,27c0.3,0.6,0.7,1.3,1,2.2c0.3,0.8,0.7,1.7,1,2.7c0.1-1,0.2-2.1,0.4-3.2
			c0.2-1.1,0.4-2.6,0.9-4.4l3.6-16.7l3.8,1.4l-6.5,30.4l-2.4-0.8l-14.8-28c-0.1-0.1-0.2-0.3-0.3-0.6c-0.7-1.4-1.2-2.6-1.5-3.7
			c-0.1,1-0.2,2-0.4,3c-0.2,1.1-0.4,2.3-0.7,3.7L95,468.3L91.1,467z"/>
		<path class="st3" d="M130.2,480.9l5.3-24.9l20.8,7.4l-0.8,3.7l-16.9-6l-1.4,6.4l10.2,3.6l-0.8,3.7l-10.2-3.6l-1.6,7.5l17.1,6.1
			l-0.8,3.7L130.2,480.9z"/>
		<path class="st3" d="M167.7,467.5l-4.5,21.2l15.1,5.4l4.5-21.2l3.9,1.4l-4.1,19.1c-0.5,2.3-1.2,3.7-2.1,4.3
			c-0.9,0.6-2.3,0.5-4.3-0.2l-12.8-4.6c-2-0.7-3.2-1.6-3.7-2.7c-0.5-1.1-0.5-2.8-0.1-5l4.1-19.1L167.7,467.5z"/>
		<path class="st3" d="M190.9,502.7l5.3-24.9l16.6,5.9c1.5,0.5,2.6,1.3,3.1,2.3c0.5,1,0.6,2.3,0.2,4.1l-1.2,5.6
			c-0.4,1.7-1,2.8-1.8,3.3c-0.8,0.5-2,0.5-3.6-0.1l-2.7-1l7,13l-5.2-1.9l-6.1-12.7l-5.6-2l-2.1,9.8L190.9,502.7z M210.3,486.7
			l-11-3.9l-1.7,8l11,3.9c0.9,0.3,1.5,0.3,1.9,0.1c0.4-0.2,0.7-0.9,0.9-1.9l0.6-3c0.2-0.9,0.2-1.6-0.1-2.1
			C211.7,487.4,211.2,487,210.3,486.7z"/>
		<path class="st3" d="M224.3,494.1c0.5-2.3,1.2-3.7,2.1-4.3c0.9-0.6,2.3-0.5,4.3,0.2l14.9,5.3c1.9,0.7,3.2,1.6,3.7,2.7
			c0.5,1.1,0.6,2.8,0.1,5.1l-2.8,13.1c-0.5,2.3-1.2,3.7-2.1,4.3c-0.9,0.6-2.3,0.5-4.3-0.2l-14.9-5.3c-2-0.7-3.2-1.6-3.8-2.7
			c-0.5-1.1-0.5-2.7,0-5L224.3,494.1z M224.9,510.8l17.2,6.2l3.7-17.5l-17.2-6.2L224.9,510.8z"/>
	</g>
	<g class="st2">
		<path class="st3" d="M283.4,494.7c1.9-0.7,3.6-1.2,5-1.4c1.4-0.2,2.6-0.1,3.6,0.2c1.6,0.6,3,1.6,4.2,3.2c1.2,1.6,2,3.4,2.5,5.7
			c0.9,4.2,0.6,7.7-1,10.6c-1.6,2.9-4.5,5.1-8.8,6.7l-11.7,4.4l-5.6-24.9L283.4,494.7z M283.8,498.6l-7.5,2.8l3.9,17.5l7.5-2.8
			c3.3-1.2,5.5-2.8,6.6-4.7c1.1-1.9,1.3-4.4,0.6-7.5c-0.7-3.1-1.9-5-3.6-5.8C289.6,497.1,287.1,497.3,283.8,498.6z"/>
		<path class="st3" d="M310.7,511.5l-5.6-24.9l20.5-7.7l0.8,3.7l-16.6,6.2l1.4,6.4l10-3.8l0.8,3.7l-10,3.8l1.7,7.5l16.8-6.3l0.8,3.6
			L310.7,511.5z"/>
		<path class="st3" d="M351.8,473.1l-14.3,5.4l1.5,6.5L352,480c1.9-0.7,3.3-0.8,4.2-0.2s1.6,2,2.1,4.3l0.7,3c0.5,2.3,0.5,4,0,5
			c-0.5,1.1-1.7,2-3.7,2.7l-12.4,4.6c-1.9,0.7-3.3,0.8-4.2,0.3s-1.6-2-2.1-4.3l-0.2-0.7l3.3-2.2l0.8,3.7l15.3-5.8l-1.6-7l-13.1,4.9
			c-1.9,0.7-3.3,0.8-4.2,0.2c-0.9-0.6-1.6-2-2.1-4.3l-0.5-2.4c-0.5-2.3-0.5-4,0-5.1s1.7-2,3.6-2.7l11.3-4.2c1.9-0.7,3.3-0.8,4.2-0.3
			c0.9,0.5,1.6,1.8,2,3.8l0.1,0.6l-3.3,2.2L351.8,473.1z"/>
		<path class="st3" d="M369.1,489.5l-5.6-24.9l3.8-1.4l2.4,10.7l10.4-15.5l5.3-2L373.3,474l19.6,6.6l-6.3,2.4l-16.1-6.1l2.5,11.2
			L369.1,489.5z"/>
	</g>
</g>
</svg>
