<?xml version="1.0" standalone="no"?>
<!DOCTYPE svg PUBLIC "-//W3C//DTD SVG 20010904//EN"
 "http://www.w3.org/TR/2001/REC-SVG-20010904/DTD/svg10.dtd">
<svg version="1.0" xmlns="http://www.w3.org/2000/svg"
 width="842.000000pt" height="842.000000pt" viewBox="0 0 842.000000 842.000000"
 preserveAspectRatio="xMidYMid meet">
<metadata>
Created by potrace 1.14, written by Peter Selinger 2001-2017
</metadata>
<g transform="translate(0.000000,842.000000) scale(0.100000,-0.100000)"
fill="#000000" stroke="none">
<path d="M3870 6474 c-101 -12 -140 -17 -205 -30 -16 -3 -64 -25 -105 -49 -41
-23 -102 -57 -135 -75 -33 -18 -125 -70 -205 -115 -404 -228 -540 -305 -588
-331 -94 -50 -162 -137 -177 -224 -3 -19 -8 -43 -11 -52 -3 -9 -6 -25 -8 -35
-2 -10 -9 -38 -16 -63 -7 -25 -14 -52 -16 -60 -2 -8 -15 -60 -30 -115 -28
-104 -38 -259 -21 -335 26 -115 133 -310 200 -363 66 -52 100 -63 420 -132 10
-2 32 -9 50 -14 18 -6 57 -18 87 -27 162 -49 282 -143 429 -338 82 -108 117
-139 188 -165 92 -34 170 -24 358 47 113 43 140 55 315 139 233 112 235 113
337 108 49 -2 114 -6 146 -9 89 -9 156 -15 232 -21 39 -3 97 -8 130 -11 113
-12 130 -13 195 -14 77 -1 107 4 180 31 162 60 294 169 385 319 19 31 48 99
66 151 28 83 32 107 33 209 2 226 -24 291 -249 625 -78 117 -164 248 -190 292
-83 136 -105 158 -223 214 -59 29 -181 88 -272 133 -284 141 -544 249 -649
271 -9 2 -38 9 -66 15 -164 38 -388 47 -585 24z"/>
<path d="M6075 4069 c-38 -10 -79 -21 -90 -23 -11 -2 -74 -18 -140 -34 -66
-17 -131 -33 -145 -36 -14 -3 -45 -10 -70 -17 -25 -6 -52 -12 -60 -14 -8 -2
-71 -18 -140 -35 -69 -18 -136 -34 -148 -36 -13 -3 -49 -12 -80 -20 -32 -8
-66 -17 -77 -18 -11 -2 -42 -10 -70 -18 -27 -9 -52 -16 -55 -16 -10 -1 -56
-12 -345 -83 -159 -39 -297 -72 -305 -74 -8 -1 -35 -8 -60 -15 -76 -20 -83
-22 -144 -25 -32 -2 -69 1 -83 6 -13 5 -36 11 -51 14 -28 5 -176 44 -427 110
-77 20 -147 38 -155 40 -8 3 -42 12 -75 21 -33 9 -67 18 -75 20 -541 137 -546
138 -624 154 -26 5 -64 14 -85 19 -20 6 -52 13 -71 16 -19 3 -87 15 -150 27
-63 11 -151 21 -196 21 l-81 1 -54 -44 c-30 -25 -56 -47 -59 -50 -3 -3 -97
-79 -210 -169 -113 -90 -208 -168 -212 -175 -23 -41 73 -101 256 -160 99 -31
320 -94 386 -109 23 -6 25 -11 26 -64 0 -60 12 -203 19 -238 2 -11 7 -51 10
-88 4 -37 8 -76 10 -86 2 -9 6 -51 10 -92 3 -41 8 -85 10 -99 2 -14 7 -54 10
-90 2 -36 7 -76 9 -90 3 -14 7 -56 10 -95 3 -38 8 -79 10 -90 2 -11 7 -54 11
-95 3 -41 8 -88 10 -105 2 -16 7 -57 10 -90 3 -33 10 -98 16 -145 5 -47 11
-104 13 -128 5 -66 -21 -52 356 -184 63 -22 124 -44 135 -49 11 -4 74 -27 140
-49 66 -23 156 -55 200 -71 44 -16 260 -92 480 -169 220 -77 409 -144 421
-149 11 -5 27 -5 35 -1 8 5 21 5 28 0 15 -9 36 -2 241 70 139 50 178 64 905
320 237 83 437 154 445 157 8 3 20 7 25 8 33 9 132 49 143 59 7 7 14 34 17 61
3 28 7 66 10 85 5 40 14 123 21 190 2 25 6 63 9 85 2 22 7 67 10 100 4 33 8
71 10 85 2 14 7 61 11 105 3 44 8 89 10 100 2 10 6 51 10 90 3 38 8 77 9 85 2
8 6 47 10 85 3 39 8 84 10 100 2 17 7 62 10 100 4 39 9 79 11 90 2 11 6 52 10
91 3 39 7 80 9 90 2 11 4 38 4 61 1 38 4 42 35 53 19 6 46 13 60 16 41 7 258
72 337 100 106 38 205 91 217 118 10 23 0 54 -22 68 -9 5 -93 72 -386 308
-134 108 -164 130 -179 129 -9 0 -47 -9 -86 -20z"/>
</g>
</svg>
