<?xml version="1.0" standalone="no"?>
<!DOCTYPE svg PUBLIC "-//W3C//DTD SVG 20010904//EN"
 "http://www.w3.org/TR/2001/REC-SVG-20010904/DTD/svg10.dtd">
<svg version="1.0" xmlns="http://www.w3.org/2000/svg"
 width="200.000000pt" height="200.000000pt" viewBox="0 0 533.000000 533.000000"
 preserveAspectRatio="xMidYMid meet" style="background-color:white">
<g transform="translate(0.000000,533.000000) scale(0.100000,-0.100000)"
fill="#000000" stroke="none">
<path d="M0 2665 l0 -2665 2665 0 2665 0 0 2665 0 2665 -2665 0 -2665 0 0
-2665z m3038 2463 c95 -35 252 -183 252 -238 0 -29 2 -30 45 -30 25 0 45 5 45
10 0 6 -4 10 -10 10 -22 0 -169 174 -157 186 7 7 139 -13 222 -33 109 -26 219
-65 300 -107 117 -59 247 -191 305 -308 45 -91 64 -178 39 -178 -8 0 -79 7
-158 15 -173 16 -177 19 -193 122 -11 77 -49 157 -56 117 -2 -12 8 -73 22
-135 14 -63 26 -122 26 -131 0 -9 -16 -30 -36 -45 -46 -36 -64 -72 -64 -126 0
-82 11 -107 73 -174 89 -95 114 -100 29 -5 -40 44 -77 96 -83 114 -23 81 19
166 105 210 79 41 264 35 356 -12 104 -54 184 -171 185 -273 0 -51 -3 -62 -25
-79 -42 -34 -75 -19 -170 82 -76 80 -110 106 -110 82 0 -4 23 -30 51 -57 37
-36 65 -77 97 -145 41 -85 46 -92 50 -65 5 42 19 55 61 55 97 0 260 -124 321
-245 43 -85 48 -135 21 -227 -33 -108 -34 -117 -11 -75 12 21 27 37 33 34 36
-11 54 -269 24 -337 -22 -50 -62 -85 -137 -118 -77 -35 -283 -86 -311 -77 -23
8 -45 47 -58 105 -7 31 -5 55 6 92 21 73 106 249 170 356 31 51 53 95 49 99
-4 4 -32 -19 -64 -50 -45 -46 -54 -59 -43 -67 12 -7 2 -37 -60 -167 l-74 -158
3 -90 c2 -49 4 -103 5 -119 2 -30 1 -30 -83 -47 -91 -19 -150 -24 -150 -11 0
4 5 23 10 42 6 19 15 75 21 124 9 84 12 92 58 155 61 82 73 107 102 201 17 57
23 100 23 180 1 122 -17 192 -66 266 -52 76 -70 84 -208 100 -194 23 -207 34
-265 220 -36 114 -44 128 -127 231 -27 32 -48 64 -48 71 0 6 -9 12 -21 12 -11
0 -44 22 -72 48 -79 72 -81 74 -168 86 l-81 12 -22 75 c-27 92 -53 135 -117
193 -89 80 -210 106 -339 71 -75 -20 -86 -20 -69 2 27 32 123 96 194 129 119
55 242 63 353 22z m-877 -48 c78 -15 171 -62 228 -115 l50 -47 77 16 c42 9
111 16 153 16 134 0 215 -55 276 -185 58 -123 57 -124 -23 -208 -81 -84 -104
-124 -100 -175 l3 -37 18 50 c29 84 62 124 130 156 46 21 77 29 119 29 95 0
138 -26 185 -113 21 -37 37 -52 72 -68 51 -22 105 -70 127 -111 7 -14 28 -75
45 -135 59 -206 78 -222 273 -232 145 -7 164 -14 210 -74 38 -50 50 -123 42
-260 -14 -257 -94 -389 -274 -457 -171 -65 -451 -86 -563 -42 -84 33 -176 123
-266 261 -104 157 -129 187 -178 211 -57 27 -185 26 -185 -2 0 -6 29 -8 78 -3
70 6 80 5 112 -17 19 -13 45 -43 58 -68 19 -38 22 -60 22 -161 0 -134 -18
-208 -69 -288 -62 -96 -184 -191 -246 -191 -39 0 -104 35 -180 96 -39 31 -86
63 -105 71 -19 8 -54 24 -78 34 -24 11 -64 43 -90 71 -112 125 -160 167 -203
179 -87 24 -203 -21 -249 -96 -36 -59 -31 -98 24 -190 57 -93 73 -165 38 -165
-38 0 -222 39 -307 65 -71 21 -89 31 -119 67 -57 66 -78 136 -74 241 3 97 15
117 68 117 44 0 43 13 -2 31 -80 33 -85 30 -90 -56 -3 -68 -6 -77 -36 -108
l-32 -33 26 -10 c35 -13 122 -192 98 -201 -29 -11 -372 82 -421 114 -12 8 -34
39 -49 69 -23 48 -26 63 -22 123 11 150 118 252 192 182 l23 -22 27 74 c15 41
34 84 42 96 27 38 93 64 175 69 l76 4 43 -51 c52 -62 126 -101 189 -101 34 0
42 3 31 10 -8 5 -24 10 -35 10 -11 0 -43 11 -72 24 -61 29 -95 79 -120 181
-21 85 -10 133 49 220 39 59 40 61 35 130 -3 39 -15 97 -26 129 -12 33 -21 73
-21 90 0 54 61 131 132 167 l37 19 -24 52 c-29 63 -27 74 33 193 80 156 229
284 410 350 45 16 159 19 233 5z m-778 -441 c24 -11 48 -44 66 -92 10 -24 5
-32 -47 -89 -97 -105 -102 -114 -102 -177 0 -36 11 -86 30 -141 16 -47 30 -95
30 -108 0 -12 -21 -58 -46 -101 -35 -62 -46 -91 -50 -137 -10 -109 -5 -104
-82 -104 -85 0 -133 -22 -204 -90 -61 -59 -67 -58 -113 15 -26 42 -30 58 -33
144 -6 157 37 283 122 358 58 51 166 84 166 51 0 -6 2 -9 4 -7 2 2 -4 47 -15
99 -10 52 -19 111 -19 131 0 56 28 136 63 176 58 66 168 100 230 72z m1554
-1326 c46 -70 149 -180 200 -216 21 -14 74 -36 118 -48 107 -29 149 -52 164
-88 7 -16 22 -38 34 -48 20 -17 20 -17 14 0 -4 10 -10 36 -13 57 -8 49 -2 52
144 79 62 11 144 30 183 41 39 12 77 19 85 16 21 -8 17 -52 -15 -144 -45 -129
-41 -125 -193 -162 -73 -17 -203 -44 -288 -60 -173 -32 -172 -32 -232 34 l-37
41 2 -49 c2 -56 -10 -69 -88 -91 -158 -45 -347 -56 -501 -30 -196 35 -524 109
-668 152 -110 33 -125 50 -108 124 7 28 12 59 12 70 0 18 -2 18 -22 5 -18 -12
-26 -12 -38 -3 -67 51 -66 152 2 213 38 35 88 56 139 58 55 1 68 -8 180 -141
75 -87 145 -133 204 -133 41 0 106 -47 147 -105 32 -46 120 -95 169 -95 14 0
53 17 89 38 172 100 259 260 260 478 0 44 5 64 16 64 2 0 20 -26 41 -57z
m-1421 -483 c697 -167 977 -237 1098 -274 l49 -15 356 85 c550 132 1541 354
1577 354 36 0 29 5 314 -219 214 -168 300 -240 300 -251 0 -17 -137 -54 -970
-265 -338 -85 -687 -171 -775 -191 l-161 -37 -44 21 c-44 19 -153 103 -449
344 -88 71 -149 114 -155 109 -6 -4 -112 -88 -236 -186 -225 -179 -371 -285
-392 -285 -38 0 -1405 337 -1698 419 -250 70 -225 59 -203 83 56 63 599 488
622 488 10 0 356 -81 767 -180z m1122 -1498 c2 -570 0 -1061 -3 -1089 -6 -46
-9 -53 -28 -53 -54 0 -1584 535 -1613 564 -12 12 -35 171 -84 576 -38 316
-100 873 -100 901 0 20 4 21 47 16 27 -3 262 -58 523 -122 261 -64 523 -125
581 -137 l107 -21 38 24 c22 13 125 94 229 179 243 200 276 223 289 210 8 -8
12 -328 14 -1048z m250 930 c64 -52 144 -117 177 -146 33 -29 89 -74 125 -100
62 -46 67 -48 115 -41 48 6 265 57 849 199 148 36 291 69 318 72 46 6 48 6 48
-18 0 -106 -159 -1442 -175 -1467 -11 -18 -111 -55 -760 -284 -746 -263 -827
-290 -858 -285 -19 3 -23 12 -30 63 -10 78 -3 2072 7 2107 8 28 8 28 38 11 16
-10 81 -60 146 -111z"/>
<path d="M2111 4745 c-91 -44 -96 -46 -143 -35 -80 17 -111 13 -157 -20 -84
-62 -239 -288 -229 -336 3 -13 22 16 56 83 64 123 119 188 187 219 80 38 135
32 160 -17 32 -60 15 -107 -76 -210 l-59 -67 0 -91 0 -90 -53 -39 c-29 -22
-67 -55 -84 -75 -30 -35 -34 -46 -49 -181 -5 -45 -14 -66 -36 -92 -32 -36 -27
-44 10 -18 31 22 47 57 66 147 24 119 52 162 131 198 51 24 96 24 143 0 59
-30 83 -64 109 -153 21 -72 31 -90 75 -135 l52 -53 -13 -57 c-47 -214 -48
-277 -9 -360 36 -76 69 -93 210 -108 111 -12 124 -12 136 3 6 9 12 19 12 23 0
3 -39 4 -87 2 -85 -5 -90 -4 -152 28 -88 46 -114 94 -113 208 0 44 8 106 17
138 14 50 26 68 93 132 42 41 69 71 59 68 -10 -4 -49 -10 -87 -13 -55 -5 -73
-3 -98 11 -43 26 -66 82 -59 140 5 34 3 45 -7 45 -7 0 -44 31 -82 69 -38 37
-86 74 -106 81 -86 31 -77 166 17 248 20 18 47 32 60 32 23 0 25 3 25 53 0
108 37 173 116 203 49 19 159 24 234 11 l45 -7 -25 19 c-27 21 -46 26 -135 36
-57 6 -65 4 -154 -40z"/>
<path d="M2350 4338 c0 -13 13 -45 30 -71 27 -43 50 -63 140 -120 23 -15 39
-37 51 -69 39 -110 105 -153 252 -167 129 -12 146 -23 186 -113 18 -41 51 -92
74 -115 l41 -43 -17 -35 c-9 -20 -17 -56 -17 -82 0 -40 5 -50 43 -88 35 -34
53 -44 103 -54 33 -6 69 -18 80 -26 26 -20 34 -19 34 6 0 14 11 24 38 35 74
29 80 34 32 28 -95 -14 -156 -8 -210 22 -28 15 -55 35 -59 43 -5 9 -11 49 -14
89 -5 64 -10 77 -41 113 -19 23 -47 74 -61 114 -15 41 -37 83 -49 94 -23 22
-91 40 -150 41 -64 0 -155 30 -186 62 -32 31 -56 121 -45 165 3 13 26 47 52
74 25 27 41 49 36 49 -15 0 -103 -69 -103 -81 0 -5 -11 -14 -24 -20 -19 -9
-33 -6 -80 17 -64 31 -104 72 -113 116 -7 36 -23 47 -23 16z"/>
<path d="M3115 4201 c3 -6 12 -11 19 -11 7 0 45 -16 84 -35 82 -41 118 -87
153 -193 12 -37 23 -68 24 -70 2 -2 33 -7 70 -13 121 -17 155 -53 155 -166 0
-53 -18 -150 -36 -197 -15 -38 16 -5 41 44 21 42 25 63 25 145 0 70 -4 102
-15 119 -24 36 -83 71 -143 85 -62 15 -84 40 -109 118 -22 70 -80 137 -136
157 -57 20 -141 31 -132 17z"/>
</g>
</svg>
