<?xml version="1.0" standalone="no"?>
<!DOCTYPE svg PUBLIC "-//W3C//DTD SVG 20010904//EN"
 "http://www.w3.org/TR/2001/REC-SVG-20010904/DTD/svg10.dtd">
<svg version="1.0" xmlns="http://www.w3.org/2000/svg"
 width="200.000000pt" height="200.000000pt" viewBox="0 0 400.000000 400.000000"
 preserveAspectRatio="xMidYMid meet">
<metadata>
Created by potrace 1.16, written by Peter Selinger 2001-2019
</metadata>
<g transform="translate(0.000000,400.000000) scale(0.100000,-0.100000)"
fill="#000000" stroke="none">
<path d="M2068 3851 c-31 -10 -74 -29 -95 -41 -48 -30 -115 -81 -110 -86 1 -2
25 3 52 11 101 31 190 14 261 -48 51 -45 79 -94 94 -164 l11 -48 53 -1 c64 -2
90 -15 135 -66 23 -27 40 -38 52 -35 14 4 19 0 19 -14 0 -11 22 -42 50 -70 38
-38 53 -63 66 -107 32 -118 45 -150 69 -172 27 -25 84 -39 166 -40 73 0 114
-28 152 -101 69 -134 37 -354 -68 -471 -31 -34 -35 -44 -35 -96 -1 -31 -7 -75
-15 -97 -8 -21 -12 -41 -10 -43 2 -3 43 3 91 13 l86 19 -8 30 c-5 17 -8 56 -9
87 0 47 8 72 58 173 31 65 57 119 57 122 0 2 -8 4 -17 4 -12 0 -2 16 33 51 62
62 89 62 44 0 -51 -70 -160 -300 -160 -337 0 -19 7 -52 16 -74 19 -48 24 -49
157 -15 181 45 220 85 221 225 0 73 -17 150 -34 150 -4 0 -15 -17 -23 -37 -23
-55 -20 -16 3 52 11 32 20 70 20 85 0 119 -154 280 -267 280 -41 0 -43 -1 -43
-30 0 -49 -17 -34 -45 40 -20 53 -38 79 -72 110 -26 22 -43 43 -40 47 14 14
56 -18 99 -74 35 -46 50 -59 75 -61 62 -6 79 68 36 151 -50 98 -140 150 -262
150 -85 1 -133 -16 -171 -59 -25 -29 -30 -43 -30 -85 0 -47 3 -53 60 -111 33
-34 60 -63 60 -65 0 -13 -29 5 -70 43 -56 53 -75 97 -67 162 4 38 12 52 43 78
l37 31 -25 112 c-13 61 -21 111 -17 111 17 0 39 -33 44 -65 3 -19 7 -51 10
-70 3 -19 14 -39 23 -44 9 -5 58 -11 107 -14 50 -3 101 -9 114 -13 23 -7 24
-6 18 32 -20 121 -144 272 -278 338 -79 38 -227 80 -323 92 l-58 7 48 -66 c27
-36 59 -68 72 -71 34 -10 17 -26 -27 -26 -35 0 -37 2 -33 28 3 23 -7 37 -62
90 -36 34 -86 72 -112 84 -67 29 -155 33 -226 9z"/>
<path d="M1470 3813 c-14 -2 -57 -20 -97 -39 -96 -46 -188 -138 -237 -235 -41
-82 -43 -102 -17 -146 l20 -31 -28 -12 c-36 -15 -87 -67 -100 -103 -9 -22 -7
-39 10 -85 12 -31 23 -80 26 -107 4 -46 1 -54 -32 -98 -45 -59 -53 -105 -30
-182 22 -78 64 -120 128 -129 53 -8 64 -26 15 -26 -46 1 -110 32 -136 66 -12
16 -27 35 -32 42 -18 20 -101 14 -150 -10 -38 -19 -48 -32 -67 -78 -12 -30
-24 -64 -27 -75 -5 -19 -6 -19 -21 3 -48 68 -145 -25 -145 -139 0 -64 23 -113
64 -139 31 -18 259 -80 299 -80 17 0 16 2 -3 38 -11 20 -26 54 -34 75 -11 26
-21 37 -35 37 -28 0 -26 6 7 35 24 21 27 29 26 85 -1 52 1 61 15 56 9 -3 39
-13 66 -23 l50 -18 -45 -3 c-24 -2 -48 -8 -52 -15 -16 -26 -19 -123 -5 -165
20 -58 57 -110 87 -121 46 -18 136 -41 213 -55 l77 -13 0 31 c0 28 -8 44 -62
125 -55 81 34 191 152 191 59 0 98 -25 162 -104 54 -68 86 -92 143 -107 24 -7
60 -30 90 -58 28 -26 71 -55 96 -65 45 -17 47 -17 89 4 58 30 123 99 157 167
22 46 28 74 31 149 5 108 -7 153 -51 190 -29 24 -35 25 -94 19 -38 -4 -63 -3
-63 3 0 24 106 30 148 8 38 -20 62 -49 126 -152 69 -114 147 -188 218 -209 70
-20 184 -19 297 5 174 36 244 87 288 211 22 62 26 92 27 189 1 99 -2 120 -19
150 -35 59 -76 75 -179 72 -129 -4 -158 23 -197 179 -11 46 -31 98 -45 116
-27 35 -89 77 -103 69 -5 -3 -21 18 -35 48 -31 63 -64 81 -142 81 -70 -1 -135
-40 -163 -98 -12 -24 -21 -51 -21 -60 0 -9 -4 -17 -10 -17 -5 0 -10 15 -10 33
0 40 41 102 94 142 41 31 43 46 17 115 -54 141 -150 189 -310 155 l-82 -18
-37 36 c-61 59 -132 89 -220 92 -43 2 -88 1 -102 -2z m319 -237 c39 -18 39
-37 -1 -25 -57 16 -145 11 -188 -11 -52 -26 -74 -70 -74 -142 1 -47 -2 -56
-12 -47 -23 19 -94 -49 -107 -103 -9 -37 3 -89 22 -94 46 -14 86 -43 114 -81
19 -28 36 -42 45 -38 12 4 13 -2 8 -35 -12 -74 39 -129 106 -116 18 4 49 9 68
12 l35 5 -25 -21 c-14 -11 -42 -34 -62 -50 -27 -22 -42 -45 -53 -82 -22 -74
-20 -165 5 -206 38 -62 129 -95 210 -74 44 11 46 9 26 -27 -8 -15 -16 -20 -20
-12 -4 7 -37 11 -83 11 -92 0 -132 20 -162 84 -27 54 -27 120 -1 227 l19 83
-39 36 c-21 19 -42 49 -45 65 -20 89 -28 105 -59 133 -50 44 -88 49 -144 20
-57 -29 -78 -63 -91 -148 -12 -73 -37 -114 -72 -118 -24 -3 -23 -3 5 21 26 21
29 31 36 106 6 74 10 85 39 115 18 19 47 42 65 51 32 17 32 18 32 91 l-1 73
46 48 c72 74 85 115 53 161 -20 29 -64 29 -122 1 -51 -25 -88 -73 -140 -179
-27 -55 -38 -69 -40 -53 -8 52 128 247 194 278 33 15 43 16 90 5 51 -12 54
-12 106 17 29 17 62 33 73 36 28 7 115 -3 144 -17z m-9 -325 c0 -27 37 -69 81
-91 50 -26 63 -25 82 4 18 27 85 71 94 62 3 -3 -14 -23 -38 -45 -41 -36 -44
-42 -42 -85 3 -93 49 -128 175 -137 106 -8 119 -17 148 -105 13 -39 32 -72 49
-86 24 -21 27 -30 27 -82 -1 -51 2 -60 27 -82 42 -36 97 -47 168 -33 71 14 86
8 27 -11 -53 -17 -70 -29 -64 -47 7 -17 -8 -17 -23 1 -6 7 -33 16 -60 20 -92
12 -139 83 -107 161 l17 39 -29 23 c-18 13 -37 45 -51 82 -28 78 -48 91 -134
91 -106 0 -187 54 -203 136 -5 28 -13 38 -43 50 -63 26 -121 95 -121 144 0 12
5 18 10 15 6 -3 10 -14 10 -24z m666 -110 c51 -23 79 -58 98 -125 19 -63 27
-71 85 -81 29 -5 56 -18 80 -40 35 -33 36 -35 36 -112 0 -68 -4 -84 -28 -126
-16 -27 -31 -46 -33 -44 -3 3 3 29 13 58 10 30 18 82 18 116 0 84 -26 113
-111 122 l-59 6 -20 65 c-26 85 -68 128 -155 157 l-65 21 50 1 c29 0 67 -7 91
-18z"/>
<path d="M941 3479 c-105 -42 -143 -142 -106 -279 8 -30 14 -66 14 -80 -2 -23
-2 -24 -6 -2 -5 23 -19 23 -83 0 -125 -46 -185 -319 -94 -428 l25 -29 47 48
c38 40 57 51 100 60 29 6 64 8 78 5 23 -6 24 -4 24 38 0 57 15 103 51 152 35
49 36 65 4 141 -14 34 -25 80 -25 108 0 44 4 52 60 112 33 35 60 67 60 70 0
20 -32 75 -48 84 -25 13 -68 13 -101 0z"/>
<path d="M2163 2452 c-1 -92 -27 -168 -80 -237 -43 -57 -144 -125 -186 -125
-30 0 -117 44 -117 59 0 4 -17 26 -38 49 -31 33 -46 42 -72 42 -60 0 -111 34
-179 120 -37 47 -73 83 -87 86 -74 19 -174 -50 -174 -119 0 -23 8 -46 24 -64
24 -27 24 -28 45 -9 18 17 21 17 21 3 0 -9 -5 -37 -12 -62 -11 -41 -10 -47 7
-64 22 -22 124 -49 410 -111 251 -54 311 -58 450 -30 137 27 159 40 152 86 -7
43 4 43 37 -1 17 -22 35 -35 49 -35 54 1 420 79 434 92 18 19 63 141 63 172 0
34 -6 35 -62 15 -27 -11 -97 -27 -154 -36 -112 -17 -116 -20 -94 -77 16 -43
-8 -40 -30 3 -24 48 -36 55 -129 77 -66 15 -79 21 -139 79 -37 35 -80 86 -97
114 -16 28 -32 51 -35 51 -3 0 -6 -35 -7 -78z"/>
<path d="M510 2225 c-23 -19 -130 -103 -237 -186 -107 -84 -191 -155 -186
-159 18 -17 1377 -360 1425 -360 31 0 64 23 263 181 l227 181 26 -25 c31 -28
364 -294 402 -320 13 -9 40 -17 59 -17 44 0 1382 338 1418 359 10 5 -20 34
-109 101 -68 52 -170 132 -227 178 -98 78 -107 83 -140 77 -20 -4 -162 -36
-316 -71 -154 -36 -408 -94 -565 -129 -157 -36 -345 -80 -417 -98 l-133 -33
-147 42 c-82 23 -249 65 -373 94 -124 29 -381 90 -572 136 -190 46 -349 84
-351 84 -3 0 -24 -16 -47 -35z"/>
<path d="M1890 1738 c-36 -28 -118 -96 -183 -151 -65 -54 -131 -103 -146 -108
-24 -9 -101 8 -447 94 -477 119 -504 125 -504 105 0 -62 125 -1106 133 -1114
3 -4 715 -256 989 -351 119 -42 224 -73 233 -70 13 6 15 94 15 804 0 439 -3
808 -6 821 -4 12 -9 22 -13 22 -3 0 -35 -23 -71 -52z"/>
<path d="M2026 1719 c-3 -38 -6 -408 -6 -820 0 -671 2 -750 16 -756 19 -7 36
-1 1136 388 82 29 88 33 93 63 3 17 25 193 50 391 51 411 80 693 72 702 -8 7
-163 -29 -577 -133 -279 -70 -340 -83 -368 -75 -18 5 -63 36 -100 69 -89 79
-293 242 -302 242 -4 0 -10 -32 -14 -71z"/>
</g>
</svg>
