<?xml version="1.0" encoding="UTF-8"?>
<svg id="Layer_1" xmlns="http://www.w3.org/2000/svg" version="1.1" viewBox="0 0 560.3 82.7">
  <!-- Generator: Adobe Illustrator 29.3.1, SVG Export Plug-In . SVG Version: 2.1.0 Build 151)  -->
  <defs>
    <style>
      .st0 {
        isolation: isolate;
      }

      .st1 {
        fill: #6ba442;
      }

      .st2 {
        fill: #fff;
      }
    </style>
  </defs>
  <g class="st0">
    <path class="st2" d="M30.2,73.4h-9.9V13.4h9.8l33.3,44.8V13.4h10.1v60h-10.1L30.1,29.1v44.3Z"/>
    <path class="st2" d="M85.8,13.4h45l-1.4,10.3-33.8-.2v13.6c0,0,20.1-.2,20.1-.2v11.4c0,0-20.1,0-20.1,0v13.5h33.4c0,0,1.8,11.6,1.8,11.6h-45V13.4Z"/>
    <path class="st2" d="M141.4,13.4h9.9v50.2h28.2V13.4h9.9v51.4c0,1.2-.2,2.3-.7,3.3-.4,1-1.1,2-1.8,2.7-.8.8-1.7,1.4-2.8,1.8-1.1.4-2.2.7-3.3.7h-30.7c-1.2,0-2.3-.2-3.3-.7-1.1-.4-2-1.1-2.8-1.8-.8-.8-1.4-1.7-1.8-2.7-.4-1-.7-2.2-.7-3.3V13.4Z"/>
    <path class="st2" d="M244.7,34.8c0,4.6-1.4,7.9-4.3,10-4,2.9-8.4,4.4-13.2,4.4l17.5,24.3h-12.1l-14.7-24h-9.5v24h-8.5V13.4h29.8c10,0,15,4.9,15,14.6v6.8ZM208.4,40.8h15.2c3.9-.2,6.6-.7,8-1.6,2.6-1.8,3.9-2.9,3.9-3.5v-6.7c0-2.2-.6-3.9-1.7-5-1.4-1.4-3-2.1-4.7-2.1h-20.8v18.9Z"/>
    <path class="st2" d="M306.5,59.4c0,4.8-.3,7.7-.6,8.7-.3.9-.9,1.8-1.8,2.8s-1.7,1.3-3.1,1.8c-1.3.5-3.6.7-6.8.7h-27.1c-1.2,0-2.8-.2-5-.6-2.5-.5-3.9-1.1-4.4-1.8-.9-1.5-1.6-2.4-1.8-2.7-.4-.6-.7-3.6-.7-8.7v-17.5c0-8.8,0-14.1.2-15.9,0-2.6.3-5,.7-7.4.1-.8.7-1.7,1.7-2.7.6-.7,2.1-1.3,4.4-1.8,1.9-.4,3.5-.7,5-.7h27.1c3.5,0,5.7.1,6.8.6,1.3.5,2.3,1.1,3.1,1.9.9.8,1.5,1.7,2,2.7.4.8.6,3.3.6,7.4l.2,16.7c0,8.1-.1,13.6-.3,16.7ZM265.4,23.3v40h31.2V23.3h-31.2Z"/>
  </g>
  <g class="st0">
    <path class="st1" d="M316.2,73.4V13.4l31.3.3c2.5,0,5.4.6,8.7,1.9,2.6,1,4.8,2.4,6.6,4.3,2,2,3.4,4.2,4.3,6.6,1,3,1.5,5.9,1.5,8.7v17.3c0,3.2-.5,6.1-1.5,8.7-1,2.6-2.4,4.8-4.2,6.6s-4,3.2-6.6,4.2c-2.6,1-5.5,1.5-8.7,1.5h-31.3ZM346.9,62.2c4.9,0,8-.7,9.2-2,2.1-2.3,3.2-5.8,3.2-10.4v-14c.2-1.9-.2-3.6-1.1-5.2-.8-1.5-1.8-2.8-2.9-3.9-1.1-1.1-2.4-1.9-3.9-2.4-1.5-.6-3-.8-4.4-.8h-21.3v38.8h21.2Z"/>
    <path class="st1" d="M381,13.4h45l-1.4,10.3-33.8-.2v13.6c0,0,20.1-.2,20.1-.2v11.4c0,0-20.1,0-20.1,0v13.5h33.4c0,0,1.8,11.6,1.8,11.6h-45V13.4Z"/>
    <path class="st1" d="M446.4,46.5c-1.1,0-2.2-.3-3.3-.7-1.1-.4-2-1.1-2.8-1.8-.8-.8-1.4-1.7-1.8-2.7-.4-1-.7-2.2-.7-3.3v-15.9c0-1.2.2-2.3.7-3.3s1.1-2,1.8-2.7,1.7-1.4,2.8-1.8,2.2-.7,3.3-.7h29.1c1.2,0,2.3.2,3.3.7s1.9,1.1,2.7,1.8c1.1,1,1.7,2,1.8,2.8l.7,3.3v6.7c0,0-9,2.7-9,2.7v-7.7h-28.7v14.3l29.1.5c1.2,0,2.3.3,3.3.7,1.1.4,2,1.1,2.8,1.8.8.8,1.4,1.7,1.8,2.7.4,1,.7,2.2.7,3.3v17.8c0,1.2-.2,2.3-.7,3.3-.4,1-1.1,2-1.8,2.7-.8.8-1.7,1.4-2.7,1.8-1,.4-2.1.7-3.3.7h-30c-1.2,0-2.3-.2-3.3-.7-1.1-.4-2-1.1-2.8-1.8-.8-.8-1.4-1.7-1.8-2.7-.4-1-.7-2.2-.7-3.3v-7.7l9.5-1.6v7.7h28.7v-16.2l-28.7-.5Z"/>
    <path class="st1" d="M505.4,13.4v23.9l26.2-23.9h12.9l-30.8,27.4,32.1,32.6h-12.9l-27.5-28.1v28.1h-10.6V13.4h10.6Z"/>
  </g>
</svg>