<?xml version="1.0" encoding="UTF-8"?>
<svg id="Layer_1" xmlns="http://www.w3.org/2000/svg" xmlns:xlink="http://www.w3.org/1999/xlink" version="1.1" viewBox="0 0 589.1 81.7">
  <!-- Generator: Adobe Illustrator 29.3.1, SVG Export Plug-In . SVG Version: 2.1.0 Build 151)  -->
  <defs>
    <style>
      .st0 {
        fill: #6aa329;
      }

      .st1 {
        fill: #fff;
      }

      .st2 {
        fill: #fff;
      }

      .st3 {
        display: none;
      }
    </style>
  </defs>
  <g id="NEURODESK.org">
    <g id="NEURO_.org">
      <path class="st2" d="M56.1,73.4h-6.6l-30.5-36.7c-1.2-1.5-2.4-3.2-3.5-4.9.3,3.8.5,6.9.5,9v32.5H7.3V13.9h6.6l29.2,34.9c2.1,2.6,3.7,4.7,4.7,6.4-.3-5.5-.5-8.9-.5-10.3V13.7h8.7v59.7Z"/>
      <path class="st2" d="M120.4,73.7h-42.9V14.3h42.4v10.1h-32.8v13.2h19.1v10.1h-19.1v14.7h33.2v11.2h0v.2Z"/>
      <path class="st2" d="M185,59.6c0,5.5-.8,9.2-2.1,11.2-1.5,2-4.1,2.9-8.1,2.9h-26.2c-4,0-6.6-.9-8.1-2.9s-2.1-5.7-2.1-11.2V14.3h9.6v48.2h27.6V14.3h9.6v45.3h-.2Z"/>
      <path class="st2" d="M255.4,73.7h-13.8l-16.7-22.5h-9.2v22.5h-9.5V14.3h35.5c6.3,0,9.3,3.8,9.3,11.5v13.9c0,5.8-1.5,9.3-4.7,10.7-1.2.6-4.6.8-9.9.8l19.1,22.5h-.2ZM241.7,36.4v-7.2c0-2-.5-3.4-1.2-4-.6-.6-1.7-.8-3.1-.8h-21.7v16.5h21.7c1.5,0,2.6-.3,3.1-.8.8-.6,1.2-2,1.2-4h0v.2Z"/>
      <path class="st2" d="M320.9,59.6c0,5.5-.8,9.2-2.1,11.2-1.5,2-4.1,2.9-8.1,2.9h-30.5c-4,0-6.6-.9-8.1-2.9s-2.1-5.7-2.1-11.2v-31.2c0-5.5.8-9.2,2.1-11.2,1.5-2,4.1-2.9,8.1-2.9h30.5c4,0,6.6.9,8.1,2.9,1.5,2,2.1,5.7,2.1,11.2v31.2ZM311.3,62.6V24.9h-31.8v37.7h31.8Z"/>
    </g>
    <g id="DESK">
      <path class="st0" d="M389.8,43.6c0,11.5-3.1,19.9-9.2,25.4-3.5,3.1-9.2,4.6-17,4.6h-24.2V14.2h26.6c7.2,0,12.9,2.3,16.8,6.9,4.6,5.1,6.9,12.6,6.9,22.5h0ZM379.9,43.3c0-12.4-4.6-18.5-13.6-18.5h-17.1v37.7h12.4c6,0,10.3-1.1,12.9-3.2,3.7-2.9,5.5-8.3,5.5-15.9h0Z"/>
      <path class="st0" d="M450.4,73.6h-42.9V14.2h42.4v10.1h-32.8v13.2h19.1v10.1h-19.1v14.7h33.2v11.2h0v.2Z"/>
      <path class="st0" d="M513.2,59.5c0,5.5-.8,9.2-2.3,11.2s-4.3,2.9-8.1,2.9h-25.6c-4.3,0-7-1.1-8.4-3.2s-2-6.3-2-12.4l8.6-2.6v7h29.4v-13.6h-25.9c-4,0-6.6-.9-8.1-2.9s-2.1-5.7-2.1-11.2v-6.6c0-5.5.8-9.2,2.1-11.2,1.5-2,4.1-2.9,8.1-2.9h23.6c4,0,6.7.9,8.1,2.9s2.1,5.7,2.1,11.3l-8.6,2.9v-6.7h-27.1v12.7h25.9c4,0,6.6.9,8.1,2.9s2.3,5.7,2.3,11.2v8.1h0l-.2.2Z"/>
      <path class="st0" d="M583.3,73.6h-15.5l-24.8-26.2v26.2h-9.8V14.2h9.8v24.8l23-24.8h13.9l-27.6,28,30.9,31.4h0Z"/>
    </g>
  </g>
  <g id="NEURODESK_on_dark" class="st3">
    <g id="NEURO_.org1" data-name="NEURO_.org">
      <path class="st1" d="M56,73.1h-6.6l-30.5-36.7c-1.2-1.5-2.4-3.2-3.5-4.9.3,3.8.5,6.9.5,9v32.5H7.1V13.6h6.6l29.2,34.9c2.1,2.6,3.7,4.7,4.7,6.4-.3-5.5-.5-8.9-.5-10.3V13.4h8.7v59.7Z"/>
      <path class="st1" d="M120.3,73.4h-42.9V14h42.4v10.1h-32.8v13.2h19.1v10.1h-19.1v14.7h33.2v11.2h0v.2Z"/>
      <path class="st1" d="M184.9,59.3c0,5.5-.8,9.2-2.1,11.2-1.5,2-4.1,2.9-8.1,2.9h-26.2c-4,0-6.6-.9-8.1-2.9s-2.1-5.7-2.1-11.2V14h9.6v48.2h27.6V14h9.6v45.3h-.2Z"/>
      <path class="st1" d="M255.3,73.4h-13.8l-16.7-22.5h-9.2v22.5h-9.5V14h35.5c6.3,0,9.3,3.8,9.3,11.5v13.9c0,5.8-1.5,9.3-4.7,10.7-1.2.6-4.6.8-9.9.8l19.1,22.5h-.2ZM241.5,36.1v-7.2c0-2-.5-3.4-1.2-4-.6-.6-1.7-.8-3.1-.8h-21.7v16.5h21.7c1.5,0,2.6-.3,3.1-.8.8-.6,1.2-2,1.2-4h0v.2Z"/>
      <path class="st1" d="M320.8,59.3c0,5.5-.8,9.2-2.1,11.2-1.5,2-4.1,2.9-8.1,2.9h-30.5c-4,0-6.6-.9-8.1-2.9s-2.1-5.7-2.1-11.2v-31.2c0-5.5.8-9.2,2.1-11.2,1.5-2,4.1-2.9,8.1-2.9h30.5c4,0,6.6.9,8.1,2.9,1.5,2,2.1,5.7,2.1,11.2v31.2ZM311.1,62.3V24.6h-31.8v37.7h31.8Z"/>
    </g>
    <g id="DESK1" data-name="DESK">
      <path class="st0" d="M389.7,43.3c0,11.5-3.1,19.9-9.2,25.4-3.5,3.1-9.2,4.6-17,4.6h-24.2V13.9h26.6c7.2,0,12.9,2.3,16.8,6.9,4.6,5.1,6.9,12.6,6.9,22.5h0ZM379.7,43c0-12.4-4.6-18.5-13.6-18.5h-17.1v37.7h12.4c6,0,10.3-1.1,12.9-3.2,3.7-2.9,5.5-8.3,5.5-15.9h0Z"/>
      <path class="st0" d="M450.3,73.3h-42.9V13.9h42.4v10.1h-32.8v13.2h19.1v10.1h-19.1v14.7h33.2v11.2h0v.2Z"/>
      <path class="st0" d="M513,59.2c0,5.5-.8,9.2-2.3,11.2s-4.3,2.9-8.1,2.9h-25.6c-4.3,0-7-1.1-8.4-3.2s-2-6.3-2-12.4l8.6-2.6v7h29.4v-13.6h-25.9c-4,0-6.6-.9-8.1-2.9s-2.1-5.7-2.1-11.2v-6.6c0-5.5.8-9.2,2.1-11.2,1.5-2,4.1-2.9,8.1-2.9h23.6c4,0,6.7.9,8.1,2.9s2.1,5.7,2.1,11.3l-8.6,2.9v-6.7h-27.1v12.7h25.9c4,0,6.6.9,8.1,2.9s2.3,5.7,2.3,11.2v8.1h0l-.2.2Z"/>
      <path class="st0" d="M583.1,73.3h-15.5l-24.8-26.2v26.2h-9.8V13.9h9.8v24.8l23-24.8h13.9l-27.6,28,30.9,31.4h0Z"/>
    </g>
  </g>
</svg>